<?xml version='1.0' encoding='utf-8'?>
<svg version='1.2' baseProfile='tiny' xmlns='http://www.w3.org/2000/svg'  x='0in' y='0in' width='0.6in' height='0.1in' viewBox='0 0 6000 1000'>
<g id='breadboard' >
<rect fill='#404040' width='6000' height='1000'/>

	<rect id="connector0pin" x="306.727" y="306.727" fill="none" width="386.544" height="386.544"/>
	<rect id="connector0terminal" x="349.77" y="343.131" fill="none" width="299.763" height="313.414"/>
	<rect x="306.727" y="306.727" width="386.544" height="386.544"/>
	<polygon fill="#2A2A29" points="164.507,164.507 306.727,306.727 693.272,306.727 835.631,164.507 	"/>
	<polygon fill="#474747" points="835.631,164.507 693.272,306.727 693.272,693.272 835.631,835.631 	"/>
	<polygon fill="#595959" points="835.631,835.631 693.272,693.272 306.727,693.272 164.507,835.631 	"/>
	<polygon fill="#373737" points="164.507,835.631 306.727,693.272 306.727,306.727 164.507,164.507 	"/>

	<rect id="connector1pin" x="1306.73" y="306.727" fill="none" width="386.544" height="386.544"/>
	<rect id="connector1terminal" x="1349.77" y="343.131" fill="none" width="299.763" height="313.414"/>
	<rect x="1306.73" y="306.727" width="386.544" height="386.544"/>
	<polygon fill="#2A2A29" points="1164.51,164.507 1306.73,306.727 1693.27,306.727 1835.63,164.507 	"/>
	<polygon fill="#474747" points="1835.63,164.507 1693.27,306.727 1693.27,693.272 1835.63,835.631 	"/>
	<polygon fill="#595959" points="1835.63,835.631 1693.27,693.272 1306.73,693.272 1164.51,835.631 	"/>
	<polygon fill="#373737" points="1164.51,835.631 1306.73,693.272 1306.73,306.727 1164.51,164.507 	"/>

	<rect id="connector2pin" x="2306.73" y="306.727" fill="none" width="386.544" height="386.544"/>
	<rect id="connector2terminal" x="2349.77" y="343.131" fill="none" width="299.763" height="313.414"/>
	<rect x="2306.73" y="306.727" width="386.544" height="386.544"/>
	<polygon fill="#2A2A29" points="2164.51,164.507 2306.73,306.727 2693.27,306.727 2835.63,164.507 	"/>
	<polygon fill="#474747" points="2835.63,164.507 2693.27,306.727 2693.27,693.272 2835.63,835.631 	"/>
	<polygon fill="#595959" points="2835.63,835.631 2693.27,693.272 2306.73,693.272 2164.51,835.631 	"/>
	<polygon fill="#373737" points="2164.51,835.631 2306.73,693.272 2306.73,306.727 2164.51,164.507 	"/>

	<rect id="connector3pin" x="3306.73" y="306.727" fill="none" width="386.544" height="386.544"/>
	<rect id="connector3terminal" x="3349.77" y="343.131" fill="none" width="299.763" height="313.414"/>
	<rect x="3306.73" y="306.727" width="386.544" height="386.544"/>
	<polygon fill="#2A2A29" points="3164.51,164.507 3306.73,306.727 3693.27,306.727 3835.63,164.507 	"/>
	<polygon fill="#474747" points="3835.63,164.507 3693.27,306.727 3693.27,693.272 3835.63,835.631 	"/>
	<polygon fill="#595959" points="3835.63,835.631 3693.27,693.272 3306.73,693.272 3164.51,835.631 	"/>
	<polygon fill="#373737" points="3164.51,835.631 3306.73,693.272 3306.73,306.727 3164.51,164.507 	"/>

	<rect id="connector4pin" x="4306.73" y="306.727" fill="none" width="386.544" height="386.544"/>
	<rect id="connector4terminal" x="4349.77" y="343.131" fill="none" width="299.763" height="313.414"/>
	<rect x="4306.73" y="306.727" width="386.544" height="386.544"/>
	<polygon fill="#2A2A29" points="4164.51,164.507 4306.73,306.727 4693.27,306.727 4835.63,164.507 	"/>
	<polygon fill="#474747" points="4835.63,164.507 4693.27,306.727 4693.27,693.272 4835.63,835.631 	"/>
	<polygon fill="#595959" points="4835.63,835.631 4693.27,693.272 4306.73,693.272 4164.51,835.631 	"/>
	<polygon fill="#373737" points="4164.51,835.631 4306.73,693.272 4306.73,306.727 4164.51,164.507 	"/>

	<rect id="connector5pin" x="5306.73" y="306.727" fill="none" width="386.544" height="386.544"/>
	<rect id="connector5terminal" x="5349.77" y="343.131" fill="none" width="299.763" height="313.414"/>
	<rect x="5306.73" y="306.727" width="386.544" height="386.544"/>
	<polygon fill="#2A2A29" points="5164.51,164.507 5306.73,306.727 5693.27,306.727 5835.63,164.507 	"/>
	<polygon fill="#474747" points="5835.63,164.507 5693.27,306.727 5693.27,693.272 5835.63,835.631 	"/>
	<polygon fill="#595959" points="5835.63,835.631 5693.27,693.272 5306.73,693.272 5164.51,835.631 	"/>
	<polygon fill="#373737" points="5164.51,835.631 5306.73,693.272 5306.73,306.727 5164.51,164.507 	"/>
</g>
</svg>