<?xml version='1.0' encoding='UTF-8' standalone='no'?>
<svg xmlns:cc="http://creativecommons.org/ns#" xmlns:rdf="http://www.w3.org/1999/02/22-rdf-syntax-ns#" id="svg6563" version="1.1" xmlns:dc="http://purl.org/dc/elements/1.1/" width="0.81in" xmlns="http://www.w3.org/2000/svg" xmlns:svg="http://www.w3.org/2000/svg" height="0.384268in" viewBox="0 0 810 384.268">
    <g id="defs98"/>
    <g id="metadata6568">
        <g>
            <g rdf:about="">
                <g>image/svg+xml</g>
                <g rdf:resource="http://purl.org/dc/dcmitype/StillImage"/>
                <g/>
            </g>
        </g>
    </g>
    <g id="schematic">
        <g id="subpart1">
            <g x="100.07121" id="rect7" stroke-width="10" stroke-linecap="round" y="109.85922" width="600" stroke="#000000" height="1800" fill="none"/>
            <g x="583.23352" id="label" font-size="60" y="1827.0669" text-anchor="middle" font-family="'Droid Sans'" fill="#000000">4001</g>
            <g id="connector6pin" stroke-width="10" stroke-linecap="round" y2="2004.8593" y1="1909.8593" stroke="#555555" x1="405.07172" fill="none" x2="405.07172"/>
            <g x="400.0712" id="connector6terminal" stroke-width="0" y="1999.8593" width="10" height="10" fill="none"/>
            <g x="457.93896" id="label6" font-size="35" y="1969.9296" text-anchor="end" font-family="'Droid Sans'" fill="#555555">7</g>
            <g x="400.0712" id="text4183" font-size="49" y="1879.8788" text-anchor="middle" font-family="'Droid Sans'" fill="#555555">GND</g>
            <g x="476.02948" id="label13" font-size="35" y="79.952736" text-anchor="end" font-family="'Droid Sans'" fill="#555555">14</g>
            <g id="connector13pin" stroke-width="10" stroke-linecap="round" y2="5.3055043" y1="104.69451" stroke="#555555" x1="405.07175" fill="none" x2="405.07175"/>
            <g x="400.0712" id="connector13terminal" stroke-width="0" y="-8.8817842e-16" width="10" height="10" fill="none"/>
            <g x="366.63702" id="text5967" font-size="49" y="164.9032" text-anchor="start" font-family="'Droid Sans'" fill="#555555">VDD</g>
        </g>
        <g id="subpart2">
            <g id="connector0pin" stroke-width="10" stroke-linecap="round" y2="305.00003" y1="305.00003" stroke="#555555" x1="5.0712123" fill="none" x2="100.07121"/>
            <g x="0.32121259" id="connector0terminal" stroke-width="0" y="300.00003" width="10" height="10" fill="none"/>
            <g id="connector1pin" stroke-width="10" stroke-linecap="round" y2="505.00003" y1="505.00003" stroke="#555555" x1="5.0712123" fill="none" x2="100.07121"/>
            <g x="0.32121259" id="connector1terminal" stroke-width="0" y="500.00003" width="10" height="10" fill="none"/>
            <g x="74.182442" id="label0" font-size="35" y="274.22253" text-anchor="end" font-family="'Droid Sans'" fill="#555555">1</g>
            <g x="70.98391" id="label1" font-size="35" y="474.73926" text-anchor="end" font-family="'Droid Sans'" fill="#555555">2</g>
            <g x="115.23878" id="text5937" font-size="49" y="474.98828" text-anchor="start" font-family="'Droid Sans'" fill="#555555">B1</g>
            <g x="120.00001" id="text5913" font-size="49" y="274.89035" text-anchor="start" font-family="'Droid Sans'" fill="#555555">A1</g>
            <g id="connector2pin" stroke-width="10" stroke-linecap="round" y2="405.00003" y1="405.00003" stroke="#555555" x1="705.37677" fill="none" x2="804.76575"/>
            <g x="800.07123" id="connector2terminal" stroke-width="0" y="400" width="10" stroke="none" height="10" fill="none"/>
            <g x="758.9057" id="label2" font-size="35" y="378.95944" text-anchor="end" font-family="'Droid Sans'" fill="#555555">3</g>
            <g x="607.86377" id="text9787" font-size="49" y="327.85519" text-anchor="start" font-family="'Droid Sans'" fill="#555555">Q1</g>
            <g d="m 180.07121,225.00003 h 160 c 160,0 240,180 240,180 0,0 -80,179 -240,180 h -160 c 20,-20 35,-51 45,-80 11,-32 15,-66 15,-100 9e-5,-33 -4,-68 -15,-100 -10,-29 -25,-60 -45,-80 z" id="body-4001-0" stroke-width="10" stroke-linecap="butt" stroke="#000000" fill="none"/>
            <g d="m 100.07121,305.00003 125,-0.002" id="a-pin-4001-0" stroke-width="10" stroke-linecap="butt" stroke="#000000" fill="none"/>
            <g d="m 100.07121,505.00003 125,-0.002" id="b-pin-4001-0" stroke-width="10" stroke-linecap="butt" stroke="#000000" fill="none"/>
            <g d="m 660.07121,405.00003 h 40" id="q-pin-4001-0" stroke-width="10" stroke-linecap="butt" stroke="#000000" fill="none"/>
            <g r="40" cy="405.00003" id="not-q-4001-0" stroke-width="10" stroke="#000000" fill="none" cx="620.07123"/>
        </g>
        <g id="subpart3">
            <g transform="translate(-0.0712123,-605.732)">
                <g>
                    <line id="connector4pin" stroke-width="10" stroke-linecap="round" y2="705" y1="705" stroke="#555555" x1="5.0712123" fill="none" x2="100.07121"/>
                    <rect x="0.32121259" id="connector4terminal" stroke-width="0" y="700" width="10" height="10" fill="none"/>
                    <line id="connector5pin" stroke-width="10" stroke-linecap="round" y2="905" y1="905" stroke="#555555" x1="5.0712123" fill="none" x2="100.07121"/>
                    <rect x="0.32121259" id="connector5terminal" stroke-width="0" y="900" width="10" height="10" fill="none"/>
                    <text x="71.232933" id="label4" font-size="35" y="674.36377" text-anchor="end" font-family="'Droid Sans'" fill="#555555">5</text>
                    <text x="70.857445" id="label5" font-size="35" y="874.86572" text-anchor="end" font-family="'Droid Sans'" fill="#555555">6</text>
                    <text x="115.23878" id="text6027" font-size="49" y="875.49414" text-anchor="start" font-family="'Droid Sans'" fill="#555555">B2</text>
                    <text x="120.00001" id="text6021" font-size="49" y="674.88251" text-anchor="start" font-family="'Droid Sans'" fill="#555555">A2</text>
                    <line id="connector3pin" stroke-width="10" stroke-linecap="round" y2="805" y1="805" stroke="#555555" x1="705.14246" fill="none" x2="804.53143"/>
                    <rect x="800.07123" id="connector3terminal" stroke-width="0" y="800" width="10" stroke="none" height="10" fill="none"/>
                    <text x="758.98224" id="label3" font-size="35" y="779.8092" text-anchor="end" font-family="'Droid Sans'" fill="#555555">4</text>
                    <text x="607.86346" id="text9853" font-size="49" y="730.08728" text-anchor="start" font-family="'Droid Sans'" fill="#555555">Q2</text>
                    <path id="path5647" d="m 180.07107,625.00003 h 160 c 160,0 240,180 240,180 0,0 -80,180 -240,180 h -160 c 20,-20 35,-51 45,-80 10,-32 15,-66 15,-100 9e-5,-33 -4,-68 -15,-100 -10,-29 -25,-60 -45,-80 z" stroke-width="10" stroke-linecap="butt" stroke="#000000" fill="none"/>
                    <path id="path5649" d="m 95.071212,705.00003 124.999998,-0.002" stroke-width="10" stroke-linecap="butt" stroke="#000000" fill="none"/>
                    <path id="path5651" d="m 95.071212,905.00003 124.999998,-0.002" stroke-width="10" stroke-linecap="butt" stroke="#000000" fill="none"/>
                    <path id="path5653" d="m 655.07121,805.00003 h 40" stroke-width="10" stroke-linecap="butt" stroke="#000000" fill="none"/>
                    <circle r="40" cy="805" id="circle5655" stroke-width="10" stroke="#000000" fill="none" cx="620.07294"/>
                </g>
            </g>
        </g>
        <g id="subpart4">
            <g id="connector7pin" stroke-width="10" stroke-linecap="round" y2="1105.0001" y1="1105.0001" stroke="#555555" x1="100.07121" fill="none" x2="5.0712123"/>
            <g x="0.32121259" id="connector7terminal" stroke-width="0" y="1100.0001" width="10" height="10" fill="none"/>
            <g id="connector8pin" stroke-width="10" stroke-linecap="round" y2="1305.0001" y1="1305.0001" stroke="#555555" x1="100.07121" fill="none" x2="5.0712123"/>
            <g x="0.32121259" id="connector8terminal" stroke-width="0" y="1300.0001" width="10" height="10" fill="none"/>
            <g id="connector9pin" stroke-width="10" stroke-linecap="round" y2="1205.0001" y1="1205.0001" stroke="#555555" x1="804.53143" fill="none" x2="705.14246"/>
            <g x="800.07123" id="connector9terminal" stroke-width="0" y="1200.0001" width="10" stroke="none" height="10" fill="none"/>
            <g x="775.00323" id="label9" font-size="35" y="1179.9358" text-anchor="end" font-family="'Droid Sans'" fill="#555555">10</g>
            <g x="607.86377" id="text9831" font-size="49" y="1127.6285" text-anchor="start" font-family="'Droid Sans'" fill="#555555">Q3</g>
            <g x="70.857445" id="label8" font-size="35" y="1274.1149" text-anchor="end" font-family="'Droid Sans'" fill="#555555">9</g>
            <g x="115.23878" id="text5949" font-size="49" y="1275.3756" text-anchor="start" font-family="'Droid Sans'" fill="#555555">B3</g>
            <g x="70.857445" id="label7" font-size="35" y="1074.4904" text-anchor="end" font-family="'Droid Sans'" fill="#555555">8</g>
            <g x="120.00001" id="text5925" font-size="49" y="1074.8748" text-anchor="start" font-family="'Droid Sans'" fill="#555555">A3</g>
            <g id="path5577" d="m 180.07107,1025 h 160 c 160,0 240,180 240,180 0,0 -80,180 -240,180 h -160 c 20,-20 35,-51 45,-80 11,-32 15,-66 15,-100 9e-5,-33 -4,-68 -15,-100 -10,-29 -25,-60 -45,-80 z" stroke-width="10" stroke-linecap="butt" stroke="#000000" fill="none"/>
            <g id="path5579" d="M 95.071212,1105 H 220.07121" stroke-width="10" stroke-linecap="butt" stroke="#000000" fill="none"/>
            <g id="path5581" d="M 95.071212,1305 H 220.07121" stroke-width="10" stroke-linecap="butt" stroke="#000000" fill="none"/>
            <g id="path5583" d="m 655.07121,1205 h 40" stroke-width="10" stroke-linecap="butt" stroke="#000000" fill="none"/>
            <g r="40" cy="1205.0001" id="circle5585" stroke-width="10" stroke="#000000" fill="none" cx="620.07294"/>
        </g>
        <g id="subpart5">
            <g id="connector12pin" stroke-width="10" stroke-linecap="round" y2="1705.0001" y1="1705.0001" stroke="#555555" x1="100.07121" fill="none" x2="5.0712123"/>
            <g x="0.32121259" id="connector12terminal" stroke-width="0" y="1700.0001" width="10" height="10" fill="none"/>
            <g x="70.884857" id="label12" font-size="35" y="1674.3639" text-anchor="end" font-family="'Droid Sans'" fill="#555555">13</g>
            <g id="connector11pin" stroke-width="10" stroke-linecap="round" y2="1505.0001" y1="1505.0001" stroke="#555555" x1="100.07121" fill="none" x2="5.0712123"/>
            <g x="0.32121259" id="connector11terminal" stroke-width="0" y="1500.0001" width="10" height="10" fill="none"/>
            <g x="70.884857" id="label11" font-size="35" y="1475.1149" text-anchor="end" font-family="'Droid Sans'" fill="#555555">12</g>
            <g x="115.23878" id="text5955" font-size="49" y="1675.004" text-anchor="start" font-family="'Droid Sans'" fill="#555555">B4</g>
            <g x="120.00001" id="text5931" font-size="49" y="1474.8787" text-anchor="start" font-family="'Droid Sans'" fill="#555555">A4</g>
            <g id="connector10pin" stroke-width="10" stroke-linecap="round" y2="1605.0001" y1="1605.0001" stroke="#555555" x1="804.53143" fill="none" x2="705.14246"/>
            <g x="800.07123" id="connector10terminal" stroke-width="0" y="1600" width="10" stroke="none" height="10" fill="none"/>
            <g x="779.26154" id="label10" font-size="35" y="1579.4957" text-anchor="end" font-family="'Droid Sans'" fill="#555555">11</g>
            <g x="607.86377" id="text9670" font-size="49" y="1528.004" text-anchor="start" font-family="'Droid Sans'" fill="#555555">Q4</g>
            <g id="path5507" d="m 180.07107,1425 h 160 c 160,0 240,180 240,180 0,0 -80,180 -240,180 h -160 c 20,-20 35,-51 45,-80 11,-32 15,-66 15,-100 9e-5,-34 -4,-68 -15,-100 -10,-29 -25,-60 -45,-80 z" stroke-width="10" stroke-linecap="butt" stroke="#000000" fill="none"/>
            <g id="path5509" d="M 95.071212,1505 H 220.07121" stroke-width="10" stroke-linecap="butt" stroke="#000000" fill="none"/>
            <g id="path5511" d="M 95.071212,1705 H 220.07121" stroke-width="10" stroke-linecap="butt" stroke="#000000" fill="none"/>
            <g id="path5513" d="m 655.07121,1605 h 40" stroke-width="10" stroke-linecap="butt" stroke="#000000" fill="none"/>
            <g r="40" cy="1605.0001" id="circle5515" stroke-width="10" stroke-linecap="butt" stroke="#000000" fill="none" cx="620.07294"/>
        </g>
    </g>
</svg>
