<?xml version='1.0' encoding='UTF-8' standalone='no'?>
<svg xmlns:cc="http://creativecommons.org/ns#" xmlns:rdf="http://www.w3.org/1999/02/22-rdf-syntax-ns#" id="svg6563" version="1.1" xmlns:dc="http://purl.org/dc/elements/1.1/" width="0.61in" xmlns="http://www.w3.org/2000/svg" xmlns:svg="http://www.w3.org/2000/svg" height="2.01014in" viewBox="0 0 610 2010.14">
    <g id="defs6565"/>
    <g id="metadata6568">
        <g>
            <g rdf:about="">
                <g>image/svg+xml</g>
                <g rdf:resource="http://purl.org/dc/dcmitype/StillImage"/>
                <g/>
            </g>
        </g>
    </g>
    <g id="schematic">
        <g id="subpart1">
            <g transform="translate(-95,6.35508e-06)">
                <g>
                    <rect x="100.00003" id="rect7" stroke-width="10" stroke-linecap="round" y="110.00002" width="600.00018" height="1800.0005" stroke="#000000" fill="none"/>
                    <text x="573.14685" id="label" font-size="60" y="1853.927" text-anchor="middle" font-family="'Droid Sans'" fill="#000000">4070</text>
                    <line id="connector6pin" stroke-width="10" y2="2005.1399" stroke-linecap="round" y1="1909.8615" stroke="#555555" x1="405.00064" x2="405.00064" fill="none"/>
                    <rect x="400.00012" id="connector6terminal" stroke-width="0" y="2000.0006" width="10.000003" height="10" fill="none"/>
                    <text x="448.32996" id="label6" font-size="35" y="1964.8561" text-anchor="end" font-family="'Droid Sans'" fill="#555555">7</text>
                    <text x="353.42288" id="text6039" font-size="49" y="1879.8959" text-anchor="start" font-family="'Droid Sans'" fill="#555555">GND</text>
                    <text x="426.76648" id="label13" font-size="35" y="79.376884" text-anchor="start" font-family="'Droid Sans'" fill="#555555">14</text>
                    <rect x="400.00012" id="connector13terminal" stroke-width="0" y="-6.355076e-06" width="10" height="10" fill="none"/>
                    <line id="connector13pin" stroke-width="10" y2="5.1412425" stroke-linecap="round" y1="104.5443" stroke="#555555" x1="405.00064" x2="405.00064" fill="none"/>
                    <text x="454.28671" id="text5967" font-size="49" y="175.34784" text-anchor="end" font-family="'Droid Sans'" fill="#555555">VDD</text>
                </g>
            </g>
        </g>
        <g id="subpart2">
            <g id="connector1pin" stroke-width="10" y2="505.00534" stroke-linecap="round" y1="505.00534" stroke="#555555" x1="5.1314974" x2="100.27074" fill="none"/>
            <g x="0.27037954" id="connector1terminal" stroke-width="0" y="500.14331" width="10" height="10" fill="none"/>
            <g id="connector0pin" stroke-width="10" y2="305.00131" stroke-linecap="round" y1="305.00131" stroke="#555555" x1="5.1314974" x2="100.27074" fill="none"/>
            <g x="0.27037954" id="connector0terminal" stroke-width="0" y="300.13931" width="10" height="10" fill="none"/>
            <g x="57.135876" id="label0" font-size="35" y="279.65573" text-anchor="start" font-family="'Droid Sans'" fill="#555555">1</g>
            <g x="51.922661" id="label1" font-size="35" y="480.07785" text-anchor="start" font-family="'Droid Sans'" fill="#555555">2</g>
            <g x="115.72202" id="text5937" font-size="49" y="480.15402" text-anchor="start" font-family="'Droid Sans'" fill="#555555">B1</g>
            <g x="120.85964" id="text5913" font-size="49" y="279.88284" text-anchor="start" font-family="'Droid Sans'" fill="#555555">A1</g>
            <g id="line105" stroke-width="10" y2="405.00543" y1="405.00543" stroke="#555555" x1="705.12866" x2="795.40662" fill="none"/>
            <g x="748.17126" id="label2" font-size="35" y="379.82483" text-anchor="end" font-family="'Droid Sans'" fill="#555555">3</g>
            <g x="616.49835" id="text9787" font-size="49" y="369.97876" text-anchor="start" font-family="'Droid Sans'" fill="#555555">Q1</g>
            <g id="connector2pin" stroke-width="10" y2="405.00543" stroke-linecap="round" y1="405.00543" stroke="#555555" x1="700.07141" x2="804.42401" fill="none"/>
            <g x="800.20148" id="connector2terminal" stroke-width="0" y="400.00034" width="10" height="10" fill="none"/>
            <g d="m 232.26961,224.76538 h 143.3694 c 143.36944,0 215.05416,180.00008 215.05416,180.00008 0,0 -71.68472,180.00006 -215.05416,180.00006 h -143.3694 c 17.92118,-19.99986 31.42211,-51.06172 40.32263,-80.00177 9.80503,-31.88057 13.44081,-66.29232 13.4409,-99.99829 7e-5,-33.7071 -3.63535,-68.12108 -13.4409,-100.00279 -8.90039,-28.9378 -22.40145,-59.99852 -40.32263,-79.99729 z" id="body-4070-0" stroke-width="10" stroke-linecap="butt" stroke="#000000" fill="none"/>
            <g id="xbar-4070-0" d="m 196.01405,584.76554 h -3.74445 c 20.00008,-19.99986 35.06713,-51.06281 45.00017,-80.00174 10.94235,-31.88056 14.99997,-66.29229 15.00006,-99.99825 9e-5,-33.70709 -4.05697,-68.12105 -15.00006,-100.00275 -9.93287,-28.93779 -25.00009,-59.99849 -45.00017,-79.99726 h 4.86113 c 20.00007,19.99877 35.07257,51.05835 45.00573,79.99726 10.94297,31.8817 14.99461,66.29566 14.9945,100.00275 -1.1e-4,33.70596 -3.88443,68.17697 -14.9945,99.99825 -10.1464,29.06084 -26.12232,60.00188 -46.12241,80.00174 z" stroke-width="10" stroke-linecap="butt" stroke="#000000" fill="none"/>
            <g d="m 100.2652,305.00312 139.73488,-0.003" id="a-pin-4070-0" stroke-width="10" stroke-linecap="butt" stroke="#000000" fill="none"/>
            <g d="m 100.2652,505.00413 139.73488,-0.007" id="b-pin-4070-0" stroke-width="10" stroke-linecap="butt" stroke="#000000" fill="none"/>
            <g d="M 590.00017,405.00363 H 700.26743" id="q-pin-4070-0" stroke-width="10" stroke-linecap="butt" stroke="#000000" fill="none"/>
        </g>
        <g id="subpart3">
            <g id="connector4pin" stroke-width="10" y2="704.99982" stroke-linecap="round" y1="704.99982" stroke="#555555" x1="5.1314974" x2="100.27074" fill="none"/>
            <g x="0.27037954" id="connector4terminal" stroke-width="0" y="700.1405" width="10" height="10" fill="none"/>
            <g id="connector5pin" stroke-width="10" y2="905.00519" stroke-linecap="round" y1="905.00519" stroke="#555555" x1="5.1314974" x2="100.27074" fill="none"/>
            <g x="0.27037954" id="connector5terminal" stroke-width="0" y="900.14459" width="10" height="10" fill="none"/>
            <g x="51.922661" id="label4" font-size="35" y="679.7691" text-anchor="start" font-family="'Droid Sans'" fill="#555555">5</g>
            <g x="52.145798" id="label5" font-size="35" y="879.77087" text-anchor="start" font-family="'Droid Sans'" fill="#555555">6</g>
            <g x="116.09841" id="text6027" font-size="49" y="880.37689" text-anchor="start" font-family="'Droid Sans'" fill="#555555">B2</g>
            <g x="120.48325" id="text6021" font-size="49" y="680.26135" text-anchor="start" font-family="'Droid Sans'" fill="#555555">A2</g>
            <g x="749.23187" id="label3" font-size="35" y="780.35345" text-anchor="end" font-family="'Droid Sans'" fill="#555555">4</g>
            <g x="609.57831" id="text9853" font-size="49" y="769.70093" text-anchor="start" font-family="'Droid Sans'" fill="#555555">Q2</g>
            <g id="connector3pin" stroke-width="10" y2="805.00391" stroke-linecap="round" y1="805.00391" stroke="#555555" x1="700.73535" x2="804.65674" fill="none"/>
            <g x="800.27332" id="connector3terminal" stroke-width="0" y="800.19922" width="10" height="10" fill="none"/>
            <g id="path5671" d="m 232.27264,624.99897 h 143.36948 c 143.36948,0 215.05421,180.00006 215.05421,180.00006 0,0 -71.68473,180.00006 -215.05421,180.00006 H 232.27264 c 17.92119,-19.99988 31.42212,-51.06172 40.32267,-80.00289 9.80502,-31.88057 13.44079,-66.29119 13.44087,-99.99717 9e-5,-33.70708 -3.63534,-68.12107 -13.44087,-100.00276 -8.90042,-28.93782 -22.40148,-59.99741 -40.32267,-79.9973 z" stroke-width="10.00000095" stroke-linecap="butt" stroke="#000000" fill="none"/>
            <g d="m 196.01692,984.99905 h -3.74444 c 20.00008,-19.99988 35.06714,-51.06282 45.00015,-80.00286 10.94235,-31.88056 14.99999,-66.29117 15.00008,-99.99713 9e-5,-33.70708 -4.05698,-68.12106 -15.00008,-100.00273 -9.93285,-28.93781 -25.00007,-59.99739 -45.00015,-79.99727 h 4.86113 c 20.00007,19.99988 35.07259,51.05835 45.00572,79.99727 10.94297,31.88167 14.99462,66.29565 14.99451,100.00273 -1.1e-4,33.70596 -3.88444,68.17586 -14.99451,99.99713 -10.14639,29.06196 -26.12232,60.00298 -46.12241,80.00286 z" id="path5673" stroke-width="10" stroke-linecap="butt" stroke="#000000" fill="none"/>
            <g id="path5675" d="m 95.238631,705.23664 144.962679,-0.003" stroke-width="10" stroke-linecap="butt" stroke="#000000" fill="none"/>
            <g id="path5677" d="m 95.238631,905.23652 144.962679,-0.007" stroke-width="10" stroke-linecap="butt" stroke="#000000" fill="none"/>
            <g id="path5679" d="M 590.00019,805.23714 H 695.24085" stroke-width="10" stroke-linecap="butt" stroke="#000000" fill="none"/>
        </g>
        <g id="subpart4">
            <g id="connector7pin" stroke-width="10" y2="1104.9996" stroke-linecap="round" y1="1104.9996" stroke="#555555" x1="100.21054" x2="5.0712123" fill="none"/>
            <g x="0.33059087" id="connector7terminal" stroke-width="0" y="1100.1404" width="10" height="10" fill="none"/>
            <g id="connector8pin" stroke-width="10" y2="1305.005" stroke-linecap="round" y1="1305.005" stroke="#555555" x1="100.21054" x2="5.0712147" fill="none"/>
            <g x="0.33059087" id="connector8terminal" stroke-width="0" y="1300.1458" width="10" height="10" fill="none"/>
            <g x="766.21136" id="label9" font-size="35" y="1179.8569" text-anchor="end" font-family="'Droid Sans'" fill="#555555">10</g>
            <g x="608.77985" id="text9831" font-size="49" y="1169.7402" text-anchor="start" font-family="'Droid Sans'" fill="#555555">Q3</g>
            <g x="52.410629" id="label8" font-size="35" y="1279.6611" text-anchor="start" font-family="'Droid Sans'" fill="#555555">9</g>
            <g x="115.72202" id="text5949" font-size="49" y="1280.1136" text-anchor="start" font-family="'Droid Sans'" fill="#555555">B3</g>
            <g x="53.051861" id="label7" font-size="35" y="1079.5475" text-anchor="start" font-family="'Droid Sans'" fill="#555555">8</g>
            <g x="120.48325" id="text5925" font-size="49" y="1079.9983" text-anchor="start" font-family="'Droid Sans'" fill="#555555">A3</g>
            <g id="connector9pin" stroke-width="10" y2="1205.0063" stroke-linecap="round" y1="1205.0063" stroke="#555555" x1="805.5578" x2="700.78339" fill="none"/>
            <g x="800.27332" id="connector9terminal" stroke-width="0" stroke-dasharray="none" y="1200.2004" width="10" height="10" stroke-opacity="1" stroke-miterlimit="4" fill="none"/>
            <g id="path5601" d="m 232.27264,1024.9997 h 143.36944 c 143.36948,0 215.05419,179.9994 215.05419,179.9994 0,0 -71.68471,180.0007 -215.05419,180.0007 H 232.27264 c 17.92119,-19.9997 31.42212,-51.0627 40.32266,-80.0027 9.80502,-31.8793 13.4408,-66.292 13.44088,-99.998 8e-5,-33.7057 -3.63535,-68.1196 -13.44088,-100.0012 -8.90042,-28.9376 -22.40147,-59.9973 -40.32266,-79.9982 z" stroke-width="10" stroke-linecap="butt" stroke="#000000" fill="none"/>
            <g d="m 196.01692,1384.9999 h -3.74444 c 20.00008,-19.9998 35.06714,-51.0639 45.00015,-80.0029 10.94235,-31.8794 14.99999,-66.2922 15.00008,-99.9983 9e-5,-33.7058 -4.05698,-68.1198 -15.00008,-100.0015 -9.93285,-28.9377 -25.00007,-59.9975 -45.00015,-79.9985 h 4.86113 c 20.00007,20.001 35.07259,51.0597 45.00572,79.9985 10.94297,31.8817 14.99462,66.2957 14.99451,100.0015 -1.1e-4,33.7061 -3.88444,68.1782 -14.99451,99.9983 -10.14639,29.062 -26.12232,60.0031 -46.12241,80.0029 z" id="path5603" stroke-width="10" stroke-linecap="butt" stroke="#000000" fill="none"/>
            <g id="path5605" d="M 95.238631,1105.2376 H 240.20131" stroke-width="10" stroke-linecap="butt" stroke="#000000" fill="none"/>
            <g id="path5607" d="m 95.238631,1305.2374 144.962679,-0.01" stroke-width="10" stroke-linecap="butt" stroke="#000000" fill="none"/>
            <g id="path5609" d="M 590.00019,1205.2368 H 695.24085" stroke-width="10" stroke-linecap="butt" stroke="#000000" fill="none"/>
        </g>
        <g id="subpart5">
            <g x="0.27037954" id="connector11terminal" stroke-width="0" y="1500.1401" width="10" height="10" fill="none"/>
            <g id="connector12pin" stroke-width="10" y2="1705.0076" stroke-linecap="round" y1="1705.0076" stroke="#555555" x1="100.21054" x2="5.0712147" fill="none"/>
            <g x="0.27037954" id="connector12terminal" stroke-width="0" y="1700.147" width="10" height="10" fill="none"/>
            <g x="33.41156" id="label12" font-size="35" y="1679.5513" text-anchor="start" font-family="'Droid Sans'" fill="#555555">13</g>
            <g id="connector11pin" stroke-width="10" y2="1505.0009" stroke-linecap="round" y1="1505.0009" stroke="#555555" x1="100.21054" x2="5.0712123" fill="none"/>
            <g x="33.146729" id="label11" font-size="35" y="1479.5472" text-anchor="start" font-family="'Droid Sans'" fill="#555555">12</g>
            <g x="116.09841" id="text5955" font-size="49" y="1679.4303" text-anchor="start" font-family="'Droid Sans'" fill="#555555">B4</g>
            <g x="120.48325" id="text5931" font-size="49" y="1479.9979" text-anchor="start" font-family="'Droid Sans'" fill="#555555">A4</g>
            <g x="766.30914" id="label10" font-size="35" y="1580.0693" text-anchor="end" font-family="'Droid Sans'" fill="#555555">11</g>
            <g x="607.89008" id="text9670" font-size="49" y="1570.1372" text-anchor="start" font-family="'Droid Sans'" fill="#555555">Q4</g>
            <g id="connector10pin" stroke-width="10" y2="1605.0002" stroke-linecap="round" y1="1605.0002" stroke="#555555" x1="805.04706" x2="700.27264" fill="none"/>
            <g x="800.27332" id="connector10terminal" stroke-width="0" y="1600.2015" width="10" height="10" fill="none"/>
            <g id="path5531" d="m 232.27264,1425.0006 h 143.36944 c 143.36948,0 215.05419,180.0006 215.05419,180.0006 0,0 -71.68471,179.9995 -215.05419,179.9995 H 232.27264 c 17.92119,-19.9997 31.42212,-51.0628 40.32266,-80.0015 9.80502,-31.8804 13.4408,-66.2934 13.44088,-99.998 8e-5,-33.707 -3.63534,-68.1219 -13.44088,-100.0024 -8.90042,-28.9378 -22.40147,-59.9984 -40.32266,-79.9982 z" stroke-width="10" stroke-linecap="butt" stroke="#000000" fill="none"/>
            <g d="m 196.01692,1785.0008 h -3.74444 c 20.00008,-19.9998 35.06714,-51.064 45.00015,-80.0017 10.94235,-31.8805 14.99999,-66.2936 15.00008,-99.9983 9e-5,-33.7071 -4.05698,-68.1221 -15.00008,-100.0027 -9.93285,-28.9378 -25.00007,-59.9985 -45.00015,-79.9984 h 4.86113 c 20.00007,19.9999 35.07259,51.0595 45.00572,79.9984 10.94297,31.8806 14.99462,66.2956 14.99451,100.0027 -1.1e-4,33.7047 -3.88444,68.177 -14.99451,99.9983 -10.14639,29.0609 -26.12232,60.0019 -46.12241,80.0017 z" id="path5533" stroke-width="10" stroke-linecap="butt" stroke="#000000" fill="none"/>
            <g id="path5535" d="M 95.238631,1505.2384 H 240.20131" stroke-width="10" stroke-linecap="butt" stroke="#000000" fill="none"/>
            <g id="path5537" d="m 95.238631,1705.2394 144.962679,-0.01" stroke-width="10" stroke-linecap="butt" stroke="#000000" fill="none"/>
            <g id="path5539" d="M 590.00019,1605.2389 H 695.24085" stroke-width="10" stroke-linecap="butt" stroke="#000000" fill="none"/>
        </g>
    </g>
</svg>
