<?xml version='1.0' encoding='UTF-8' standalone='no'?>
<svg xmlns:cc="http://creativecommons.org/ns#" xmlns:rdf="http://www.w3.org/1999/02/22-rdf-syntax-ns#" id="svg6563" version="1.1" xmlns:dc="http://purl.org/dc/elements/1.1/" width="0.810175in" xmlns="http://www.w3.org/2000/svg" xmlns:svg="http://www.w3.org/2000/svg" height="0.385754in" viewBox="0 0 810.175 385.754">
    <g id="defs6565"/>
    <g id="metadata6568">
        <g>
            <g rdf:about="">
                <g>image/svg+xml</g>
                <g rdf:resource="http://purl.org/dc/dcmitype/StillImage"/>
                <g/>
            </g>
        </g>
    </g>
    <g id="schematic">
        <g id="subpart1">
            <g x="105.34391" id="rect7" stroke-width="10" stroke-linecap="round" y="120.31935" width="590.43274" stroke="#000000" height="1781.3854" fill="none"/>
            <g x="577.04437" id="label" font-size="60" y="1853.9269" text-anchor="middle" font-family="'Droid Sans'" fill="#000000">4071</g>
            <g x="400.24622" id="connector6terminal" stroke-width="0" y="2000.0006" width="10" height="10" fill="none"/>
            <g id="connector6pin" stroke-width="10" stroke-linecap="round" y2="2004.6857" y1="1905.3156" stroke="#555555" x1="405.36548" fill="none" x2="405.36548"/>
            <g x="447.88293" id="label6" font-size="35" y="1955.1632" text-anchor="end" font-family="'Droid Sans'" fill="#555555">7</g>
            <g x="353.77142" id="text6039" font-size="49" y="1869.568" text-anchor="start" font-family="'Droid Sans'" fill="#555555">GND</g>
            <g x="428.61261" id="label13" font-size="35" y="90.009933" text-anchor="start" font-family="'Droid Sans'" fill="#555555">14</g>
            <g id="connector13pin" stroke-width="10" stroke-linecap="round" y2="5.6920505" y1="114.56579" stroke="#555555" x1="405.00064" fill="none" x2="405.00064"/>
            <g x="400.24622" id="connector13terminal" stroke-width="0" y="-2.5243549e-29" width="10" height="10" fill="none"/>
            <g x="452.646" id="text15" font-size="49" y="185.79706" text-anchor="end" font-family="'Droid Sans'" fill="#555555">VDD</g>
        </g>
        <g id="subpart2">
            <g id="connector0pin" stroke-width="10" stroke-linecap="round" y2="304.9996" y1="304.9996" stroke="#555555" x1="5.1315417" fill="none" x2="100.34022"/>
            <g x="0.26687604" id="connector0terminal" stroke-width="0" y="300.00009" width="10" height="10" fill="none"/>
            <g id="connector1pin" stroke-width="10" stroke-linecap="round" y2="504.99966" y1="504.99966" stroke="#555555" x1="5.1315417" fill="none" x2="100.34022"/>
            <g x="0.26687604" id="connector1terminal" stroke-width="0" y="500.00015" width="10" height="10" fill="none"/>
            <g x="67.983376" id="label0" font-size="35" y="280.0354" text-anchor="start" font-family="'Droid Sans'" fill="#555555">1</g>
            <g x="62.557518" id="label1" font-size="35" y="480.14499" text-anchor="start" font-family="'Droid Sans'" fill="#555555" class="text">2</g>
            <g x="125.44714" id="text5937" font-size="49" y="480.17471" text-anchor="start" font-family="'Droid Sans'" fill="#555555">B1</g>
            <g x="130.0753" id="text5913" font-size="49" y="280.06516" text-anchor="start" font-family="'Droid Sans'" fill="#555555">A1</g>
            <g x="738.16132" id="label2" font-size="35" y="379.55316" text-anchor="end" font-family="'Droid Sans'" fill="#555555" class="text">3</g>
            <g x="607.45239" id="text9787" font-size="49" y="369.6553" text-anchor="start" font-family="'Droid Sans'" fill="#555555">Q1</g>
            <g id="connector2pin" stroke-width="10" stroke-linecap="round" y2="404.99963" y1="404.99963" stroke="#555555" x1="700.30402" fill="none" x2="804.44684"/>
            <g x="800.24634" id="connector2terminal" stroke-width="0" y="399.82828" width="10" height="10" fill="none"/>
            <g d="m 199.6071,225.23231 h 160.11736 c 160.11734,0 240.17604,179.38393 240.17604,179.38393 0,0 -80.0587,179.38394 -240.17604,179.38394 H 199.6071 c 20.01466,-19.9318 35.09274,-50.88698 45.03301,-79.72829 10.9504,-31.77128 15.01091,-66.06504 15.011,-99.65565 9e-5,-33.59172 -4.06002,-67.88769 -15.011,-99.66008 -9.94013,-28.83909 -25.01835,-59.79317 -45.03301,-79.72385 z" id="body-4071-0" stroke-width="10" stroke-linecap="butt" stroke="#000000" fill="none"/>
            <g d="m 100.33533,305.00009 144.39451,-0.002" id="a-pin-4071-0" stroke-width="10.00000095" stroke-linecap="butt" stroke="#000000" fill="none"/>
            <g d="m 100.33181,505.00016 143.16463,-0.002" id="b-pin-4071-0" stroke-width="10" stroke-linecap="butt" stroke="#000000" fill="none"/>
            <g d="m 600.00016,405.54721 h 100.7746" id="q-pin-4071-0" stroke-width="10" stroke-linecap="butt" stroke="#000000" fill="none"/>
        </g>
        <g id="subpart3">
            <g id="connector4pin" stroke-width="10" stroke-linecap="round" y2="704.99969" y1="704.99969" stroke="#555555" x1="5.1315417" fill="none" x2="100.34022"/>
            <g x="0.26687604" id="connector4terminal" stroke-width="0" y="700.00018" width="10" height="10" fill="none"/>
            <g id="connector5pin" stroke-width="10" stroke-linecap="round" y2="904.99976" y1="904.99976" stroke="#555555" x1="5.1315417" fill="none" x2="100.34022"/>
            <g x="0.26687604" id="connector5terminal" stroke-width="0" y="900.00024" width="10" height="10" fill="none"/>
            <g x="62.690598" id="label4" font-size="35" y="679.73877" text-anchor="start" font-family="'Droid Sans'" fill="#555555">5</g>
            <g x="62.50811" id="label5" font-size="35" y="879.58069" text-anchor="start" font-family="'Droid Sans'" fill="#555555">6</g>
            <g x="125.44714" id="text6027" font-size="49" y="880.10126" text-anchor="start" font-family="'Droid Sans'" fill="#555555">B2</g>
            <g x="130.34145" id="text6021" font-size="49" y="679.93274" text-anchor="start" font-family="'Droid Sans'" fill="#555555">A2</g>
            <g x="738.534" id="label3" font-size="35" y="780.01453" text-anchor="end" font-family="'Droid Sans'" fill="#555555">4</g>
            <g x="607.07599" id="text9853" font-size="49" y="769.71619" text-anchor="start" font-family="'Droid Sans'" fill="#555555">Q2</g>
            <g id="connector3pin" stroke-width="10" stroke-linecap="round" y2="804.99969" y1="804.99969" stroke="#555555" x1="701.23914" fill="none" x2="805.16785"/>
            <g x="800.24634" id="connector3terminal" stroke-width="0" y="800.00024" width="10" height="10" fill="none"/>
            <g id="path5683" d="m 199.60711,626.23244 h 160.11737 c 160.11735,0 240.17603,179.38394 240.17603,179.38394 0,0 -80.05868,179.38393 -240.17603,179.38393 H 199.60711 c 20.01467,-19.93068 35.09275,-50.88698 45.03301,-79.72828 10.95041,-31.77128 15.01091,-66.06504 15.011,-99.65565 9e-5,-33.59172 -4.06002,-67.88769 -15.011,-99.66008 C 234.7,677.11721 219.62178,646.16424 199.60711,626.23244 Z" stroke-width="10" stroke-linecap="butt" stroke="#000000" fill="none"/>
            <g id="path5685" d="m 100.24256,705.09998 141.2355,-0.002" stroke-width="10" stroke-linecap="butt" stroke="#000000" fill="none"/>
            <g id="path5687" d="m 100.24244,905.10004 141.98856,-0.002" stroke-width="10" stroke-linecap="butt" stroke="#000000" fill="none"/>
            <g id="path5689" d="m 600.00017,805.00025 h 95.74436" stroke-width="10" stroke-linecap="butt" stroke="#000000" fill="none"/>
        </g>
        <g id="subpart4">
            <g id="connector7pin" stroke-width="10" stroke-linecap="round" y2="1104.9999" y1="1104.9999" stroke="#555555" x1="100.27997" fill="none" x2="5.0712123"/>
            <g x="0.32713133" id="connector7terminal" stroke-width="0" y="1100.0004" width="10" height="10" fill="none"/>
            <g id="connector8pin" stroke-width="10" stroke-linecap="round" y2="1304.9999" y1="1304.9999" stroke="#555555" x1="100.27997" fill="none" x2="5.0712147"/>
            <g x="0.32713133" id="connector8terminal" stroke-width="0" y="1300.0004" width="10" height="10" fill="none"/>
            <g x="717.16437" id="label9" font-size="35" y="1180.1908" font-family="'Droid Sans'" fill="#555555">10</g>
            <g x="607.07599" id="text9831" font-size="49" y="1170.0114" text-anchor="start" font-family="'Droid Sans'" fill="#555555">Q3</g>
            <g x="62.099335" id="label8" font-size="35" y="1279.5765" text-anchor="start" font-family="'Droid Sans'" fill="#555555" class="text">9</g>
            <g x="125.18099" id="text5949" font-size="49" y="1280.0258" text-anchor="start" font-family="'Droid Sans'" fill="#555555">B3</g>
            <g x="62.582226" id="label7" font-size="35" y="1079.5753" text-anchor="start" font-family="'Droid Sans'" fill="#555555" class="text">8</g>
            <g x="130.0753" id="text5925" font-size="49" y="1079.783" text-anchor="start" font-family="'Droid Sans'" fill="#555555">A3</g>
            <g id="connector9pin" stroke-width="10" stroke-linecap="round" y2="1204.9999" y1="1204.9999" stroke="#555555" x1="805.17432" fill="none" x2="701.24561"/>
            <g x="800.24634" id="connector9terminal" stroke-width="0" y="1200.0004" width="10" height="10" fill="none"/>
            <g id="path5613" d="m 199.60662,1026.2315 h 160.11737 c 160.11735,0 240.17603,179.384 240.17603,179.384 0,0 -80.05868,179.385 -240.17603,179.385 H 199.60662 c 20.01467,-19.9318 35.09275,-50.8881 45.03301,-79.7294 10.95041,-31.7702 15.01091,-66.065 15.011,-99.6556 9e-5,-33.5907 -4.06002,-67.8877 -15.011,-99.6601 -9.94012,-28.838 -25.01834,-59.7921 -45.03301,-79.7239 z" stroke-width="10" stroke-linecap="butt" stroke="#000000" fill="none"/>
            <g id="path5615" d="M 95.30443,1105.0004 H 242.22729" stroke-width="9.99999905" stroke-linecap="butt" stroke="#000000" fill="none"/>
            <g id="path5617" d="M 95.304434,1305.0005 H 243.7329" stroke-width="10" stroke-linecap="butt" stroke="#000000" fill="none"/>
            <g id="path5619" d="m 599.90002,1205.6155 h 95.8445" stroke-width="10" stroke-linecap="butt" stroke="#000000" fill="none"/>
        </g>
        <g id="subpart5">
            <g transform="translate(-0.0712123,-1404.25)">
                <g>
                    <line id="connector11pin" stroke-width="10" stroke-linecap="round" y2="1505" y1="1505" stroke="#555555" x1="100.27997" fill="none" x2="5.0712123"/>
                    <rect x="0.26687604" id="connector11terminal" stroke-width="0" y="1500.0005" width="10" height="10" fill="none"/>
                    <line id="connector12pin" stroke-width="10" stroke-linecap="round" y2="1705" y1="1705" stroke="#555555" x1="100.27997" fill="none" x2="5.0712147"/>
                    <rect x="0.26687604" id="connector12terminal" stroke-width="0" y="1700.0005" width="10" height="10" fill="none"/>
                    <text x="43.386501" id="label12" font-size="35" y="1679.4722" text-anchor="start" font-family="'Droid Sans'" fill="#555555" class="text">13</text>
                    <text x="43.460617" id="label11" font-size="35" y="1479.8948" text-anchor="start" font-family="'Droid Sans'" fill="#555555">12</text>
                    <text x="125.44714" id="text5955" font-size="49" y="1679.8523" text-anchor="start" font-family="'Droid Sans'" fill="#555555">B4</text>
                    <text x="130.20837" id="text5931" font-size="49" y="1479.8989" text-anchor="start" font-family="'Droid Sans'" fill="#555555">A4</text>
                    <text x="755.79486" id="label10" font-size="35" y="1580.314" text-anchor="end" font-family="'Droid Sans'" fill="#555555">11</text>
                    <text x="606.69958" id="text9670" font-size="49" y="1570.021" text-anchor="start" font-family="'Droid Sans'" fill="#555555">Q4</text>
                    <line id="connector10pin" stroke-width="10" stroke-linecap="round" y2="1605.3868" y1="1605.3868" stroke="#555555" x1="805.09253" fill="none" x2="700.3175"/>
                    <rect x="800.24634" id="connector10terminal" stroke-width="0" y="1600.0005" width="10" height="10" fill="none"/>
                    <path id="path5543" d="m 199.60662,1426.2316 h 160.11737 c 160.11735,0 240.17603,179.385 240.17603,179.385 0,0 -80.05868,179.384 -240.17603,179.384 H 199.60662 c 20.01467,-19.9318 35.09275,-50.8881 45.03301,-79.7283 10.95041,-31.7713 15.01091,-66.0662 15.011,-99.6557 9e-5,-33.5917 -4.06002,-67.8888 -15.011,-99.6612 -9.94012,-28.838 -25.01834,-59.792 -45.03301,-79.7238 z" stroke-width="10" stroke-linecap="butt" stroke="#000000" fill="none"/>
                    <path id="path5545" d="M 100.24613,1505.1003 H 242.9801" stroke-width="10" stroke-linecap="butt" stroke="#000000" fill="none"/>
                    <path id="path5547" d="M 95.304436,1705.0007 H 244.48571" fill-rule="evenodd" stroke-width="10.00000095" stroke-linecap="butt" stroke="#000000" fill="none"/>
                    <path id="path5549" d="m 599.90002,1605.6166 h 95.8445" stroke-width="10" stroke-linecap="butt" stroke="#000000" fill="none"/>
                </g>
            </g>
        </g>
    </g>
</svg>
