<?xml version='1.0' encoding='UTF-8' standalone='no'?>
<svg xmlns:cc="http://creativecommons.org/ns#" xmlns:rdf="http://www.w3.org/1999/02/22-rdf-syntax-ns#" id="svg6563" version="1.1" xmlns:dc="http://purl.org/dc/elements/1.1/" width="0.810066in" xmlns="http://www.w3.org/2000/svg" xmlns:svg="http://www.w3.org/2000/svg" height="0.34196in" viewBox="0 0 810.066 341.96">
    <g id="defs6565"/>
    <g id="metadata6568">
        <g>
            <g rdf:about="">
                <g>image/svg+xml</g>
                <g rdf:resource="http://purl.org/dc/dcmitype/StillImage"/>
                <g/>
            </g>
        </g>
    </g>
    <g id="schematic">
        <g id="subpart1">
            <g x="100.00003" id="rect7" stroke-width="10" stroke-linecap="round" y="109.36138" width="600.00018" stroke="#000000" height="1800.0006" fill="none"/>
            <g x="571.8761" id="label" font-size="60" y="1874.4893" text-anchor="middle" font-family="'Droid Sans'" fill="#000000">4077</g>
            <g id="connector6pin" stroke-width="10" stroke-linecap="round" y2="2005.0642" y1="1910.6598" stroke="#555555" x1="405.20132" fill="none" x2="405.20132"/>
            <g x="400.20129" id="connector6terminal" stroke-width="0" y="2000.3619" width="10.000003" height="10" fill="none"/>
            <g x="448.16837" id="label6" font-size="35" y="1965.5824" text-anchor="end" font-family="'Droid Sans'" fill="#555555">7</g>
            <g x="353.91223" id="text6039" font-size="49" y="1880.3988" text-anchor="start" font-family="'Droid Sans'" fill="#555555">GND</g>
            <g x="427.24799" id="label13" font-size="35" y="80.199127" text-anchor="start" font-family="'Droid Sans'" fill="#555555">14</g>
            <g id="connector13pin" stroke-width="10" stroke-linecap="round" y2="5.0712118" y1="105.29017" stroke="#555555" x1="405.20181" fill="none" x2="405.20181"/>
            <g x="400.00012" id="connector13terminal" stroke-width="0" y="0.36135036" width="10.000003" height="10" fill="none"/>
            <g x="453.79468" id="text5967" font-size="49" y="175.42717" text-anchor="end" font-family="'Droid Sans'" fill="#555555">VDD</g>
        </g>
        <g id="subpart2">
            <g id="connector0pin" stroke-width="10" stroke-linecap="round" y2="305.36179" y1="305.36179" stroke="#555555" x1="5.1314974" fill="none" x2="100.27074"/>
            <g x="0.27037978" id="connector0terminal" stroke-width="0" y="300.50061" width="10" height="10" fill="none"/>
            <g id="connector1pin" stroke-width="10" stroke-linecap="round" y2="505.36566" y1="505.36566" stroke="#555555" x1="5.1314974" fill="none" x2="100.27074"/>
            <g x="0.27037978" id="connector1terminal" stroke-width="0" y="500.50452" width="10" height="10" fill="none"/>
            <g x="57.734261" id="label0" font-size="35" y="280.40347" text-anchor="start" font-family="'Droid Sans'" fill="#555555">1</g>
            <g x="53.04977" id="label1" font-size="35" y="480.21805" text-anchor="start" font-family="'Droid Sans'" fill="#555555">2</g>
            <g x="125.60442" id="text5937" font-size="49" y="480.61819" text-anchor="start" font-family="'Droid Sans'" fill="#555555">B1</g>
            <g x="130.47522" id="text5913" font-size="49" y="280.23892" text-anchor="start" font-family="'Droid Sans'" fill="#555555">A1</g>
            <g x="748.27344" id="label2" font-size="35" y="379.43454" text-anchor="end" font-family="'Droid Sans'" fill="#555555">3</g>
            <g x="616.89178" id="text9787" font-size="49" y="339.95297" text-anchor="start" font-family="'Droid Sans'" fill="#555555">Q1</g>
            <g id="connector2pin" stroke-width="10" stroke-linecap="round" y2="405.5806" y1="405.5806" stroke="#555555" x1="700.65393" fill="none" x2="804.57361"/>
            <g x="800.17432" id="connector2terminal" stroke-width="0" y="400.36142" width="10" height="10" fill="none"/>
            <g id="body-4077-0" d="m 236.7238,240.36138 h 118.68449 c 118.68447,0 178.02674,165.00005 178.02674,165.00005 0,0 -59.34227,165.00006 -178.02674,165.00006 H 236.7238 c 14.83554,-18.33358 26.01195,-46.80662 33.38,-73.33529 8.1168,-29.22371 11.1266,-60.76762 11.12668,-91.66477 7e-5,-30.89817 -3.00945,-62.44412 -11.12668,-91.66884 -7.36796,-26.52664 -18.54446,-54.99866 -33.38,-73.33121 z" stroke-width="10.00000095" stroke-linecap="butt" stroke="#000000" fill="none"/>
            <g d="m 211.79561,570.36149 h -2.96126 c 15.81685,-18.33358 27.73248,-46.80764 35.58791,-73.33529 8.65363,-29.22371 11.86256,-60.76762 11.86262,-91.66477 7e-5,-30.89817 -3.2084,-62.44412 -11.86262,-91.66884 -7.85528,-26.52664 -19.77106,-54.99866 -35.58791,-73.33121 h 3.84437 c 15.81686,18.33255 27.73679,46.80355 35.5923,73.33121 8.65414,29.22472 11.85832,60.77067 11.85824,91.66884 -9e-5,30.89715 -3.07197,62.49505 -11.85824,91.66477 -8.02417,26.63969 -20.65855,55.00171 -36.47541,73.33529 z" id="xbar-4077-0" stroke-width="10" stroke-linecap="butt" stroke="#000000" fill="none"/>
            <g id="a-pin-4077-0" d="m 100.26522,305.3645 139.93602,-0.003" stroke-width="10" stroke-linecap="butt" stroke="#000000" fill="none"/>
            <g id="b-pin-4077-0" d="m 100.26522,505.36482 139.93602,-0.007" stroke-width="10" stroke-linecap="butt" stroke="#000000" fill="none"/>
            <g id="q-pin-4077-0" d="m 620.00017,405.5796 h 80.18487" stroke-width="10" stroke-linecap="butt" stroke="#000000" fill="none"/>
            <g r="40" cy="405.36133" id="not-q-4077-0" stroke-width="10" stroke="#000000" fill="none" cx="576.25018"/>
        </g>
        <g id="subpart3">
            <g transform="translate(-0.131497,-633.402)">
                <g>
                    <line id="connector4pin" stroke-width="10" stroke-linecap="round" y2="705.36005" y1="705.36005" stroke="#555555" x1="5.1314974" fill="none" x2="100.27074"/>
                    <rect x="0.27037978" id="connector4terminal" stroke-width="0" y="700.50159" width="10" height="10" fill="none"/>
                    <line id="connector5pin" stroke-width="10" stroke-linecap="round" y2="905.36664" y1="905.36664" stroke="#555555" x1="5.1314974" fill="none" x2="100.27074"/>
                    <rect x="0.27037978" id="connector5terminal" stroke-width="0" y="900.50549" width="10" height="10" fill="none"/>
                    <text x="52.296837" id="label4" font-size="35" y="679.84216" text-anchor="start" font-family="'Droid Sans'" fill="#555555">5</text>
                    <text x="52.298775" id="label5" font-size="35" y="879.84332" text-anchor="start" font-family="'Droid Sans'" fill="#555555">6</text>
                    <text x="125.60248" id="text6027" font-size="49" y="880.24158" text-anchor="start" font-family="'Droid Sans'" fill="#555555">B2</text>
                    <text x="129.9144" id="text6021" font-size="49" y="680.23877" text-anchor="start" font-family="'Droid Sans'" fill="#555555">A2</text>
                    <text x="749.40997" id="label3" font-size="35" y="780.12872" text-anchor="end" font-family="'Droid Sans'" fill="#555555">4</text>
                    <text x="619.02142" id="text9853" font-size="49" y="749.65259" text-anchor="start" font-family="'Droid Sans'" fill="#555555">Q2</text>
                    <line id="connector3pin" stroke-width="10" stroke-linecap="round" y2="805.367" y1="805.367" stroke="#555555" x1="700.67316" fill="none" x2="804.59332"/>
                    <rect x="800.19775" id="connector3terminal" stroke-width="0" y="800.36157" width="10" height="10" fill="none"/>
                    <path d="m 236.72834,640.36151 h 118.6832 c 118.68321,0 178.02481,165.00006 178.02481,165.00006 0,0 -59.3416,165.00005 -178.02481,165.00005 h -118.6832 c 14.83539,-18.33254 26.01167,-46.80662 33.37965,-73.33528 8.11674,-29.22371 11.12649,-60.76763 11.12654,-91.66477 8e-5,-30.89818 -3.00939,-62.44413 -11.12654,-91.66885 -7.36787,-26.52663 -18.54426,-54.99765 -33.37965,-73.33121 z" id="path5693" stroke-width="10" stroke-linecap="butt" stroke="#000000" fill="none"/>
                    <path id="path5695" d="m 211.79601,970.36162 h -2.96137 c 15.81748,-18.33254 27.73359,-46.80763 35.58934,-73.33528 8.65395,-29.22371 11.86302,-60.76763 11.8631,-91.66477 6e-5,-30.89818 -3.20854,-62.44413 -11.8631,-91.66885 -7.85562,-26.52663 -19.77186,-54.99765 -35.58934,-73.33121 h 3.84452 c 15.81748,18.33356 27.73791,46.80355 35.59374,73.33121 8.65448,29.22472 11.85881,60.77067 11.85872,91.66885 -8e-5,30.89714 -3.07209,62.49506 -11.85872,91.66477 -8.02449,26.63969 -20.65939,55.00274 -36.47689,73.33528 z" stroke-width="10" stroke-linecap="butt" stroke="#000000" fill="none"/>
                    <path d="m 95.238629,705.59734 144.962621,-0.003" id="path5697" stroke-width="10" stroke-linecap="butt" stroke="#000000" fill="none"/>
                    <path d="m 95.238629,905.59764 144.962621,-0.007" id="path5699" stroke-width="10" stroke-linecap="butt" stroke="#000000" fill="none"/>
                    <path d="m 620.00023,805.57974 h 75.17828" id="path5701" stroke-width="10" stroke-linecap="butt" stroke="#000000" fill="none"/>
                    <circle r="40" cy="805.36133" id="circle5703" stroke-width="10" stroke="#000000" fill="none" cx="576.25018"/>
                </g>
            </g>
        </g>
        <g id="subpart4">
            <g x="765.92218" id="label9" font-size="35" y="1179.5229" text-anchor="end" font-family="'Droid Sans'" fill="#555555">10</g>
            <g x="617.9566" id="text9831" font-size="49" y="1138.8639" text-anchor="start" font-family="'Droid Sans'" fill="#555555">Q3</g>
            <g id="connector8pin" stroke-width="10" stroke-linecap="round" y2="1305.3663" y1="1305.3663" stroke="#555555" x1="100.21053" fill="none" x2="5.0712147"/>
            <g x="0.33059111" id="connector8terminal" stroke-width="0" y="1300.5063" width="10" height="10" fill="none"/>
            <g x="51.924248" id="label8" font-size="35" y="1280.2231" text-anchor="start" font-family="'Droid Sans'" fill="#555555">9</g>
            <g x="125.60442" id="text5949" font-size="49" y="1279.8684" text-anchor="start" font-family="'Droid Sans'" fill="#555555">B3</g>
            <g id="connector7pin" stroke-width="10" stroke-linecap="round" y2="1105.3611" y1="1105.3611" stroke="#555555" x1="100.21053" fill="none" x2="5.0712123"/>
            <g x="0.33059111" id="connector7terminal" stroke-width="0" y="1100.5013" width="10" height="10" fill="none"/>
            <g x="52.514187" id="label7" font-size="35" y="1079.8457" text-anchor="start" font-family="'Droid Sans'" fill="#555555">8</g>
            <g x="130.09874" id="text5925" font-size="49" y="1080.2417" text-anchor="start" font-family="'Droid Sans'" fill="#555555">A3</g>
            <g id="connector9pin" stroke-width="10" stroke-linecap="round" y2="1205.3678" y1="1205.3678" stroke="#555555" x1="805.10614" fill="none" x2="700.75354"/>
            <g x="800.27338" id="connector9terminal" stroke-width="0" y="1200.5609" width="10" height="10" fill="none"/>
            <g d="M 236.19582,1026.4021 H 355.1112 c 118.91538,0 178.37306,180.0001 178.37306,180.0001 0,0 -59.45768,180.0011 -178.37306,180.0011 H 236.19582 c 14.86443,-20.0003 26.06256,-51.0628 33.44495,-80.0032 8.13262,-31.8793 11.14826,-66.2919 11.14831,-99.9979 8e-5,-33.7061 -3.01528,-68.1209 -11.14831,-100.0024 -7.38228,-28.9371 -18.58052,-59.9974 -33.44495,-79.9977 z" id="path5623" stroke-width="10" stroke-linecap="butt" stroke="#000000" fill="none"/>
            <g id="path5625" d="m 211.20828,1385.3612 h -2.96175 c 15.81948,-20.0003 27.73709,-51.0639 35.59383,-80.0032 8.65505,-31.8793 11.86452,-66.2919 11.8646,-99.9979 6e-5,-33.7061 -3.20894,-68.1209 -11.8646,-100.0024 -7.85661,-28.9371 -19.77435,-59.9974 -35.59383,-79.9977 h 3.845 c 15.81948,20.0003 27.74141,51.0595 35.59823,79.9977 8.65558,31.8815 11.86031,66.2963 11.86022,100.0024 -8e-5,33.706 -3.07247,68.1775 -11.86022,99.9979 -8.0255,29.0615 -20.66199,60.0029 -36.48148,80.0032 z" stroke-width="10" stroke-linecap="butt" stroke="#000000" fill="none"/>
            <g d="M 95.238629,1105.598 H 240.20125" id="path5627" stroke-width="10" stroke-linecap="butt" stroke="#000000" fill="none"/>
            <g d="m 95.238629,1305.5983 144.962621,-0.01" id="path5629" stroke-width="10" stroke-linecap="butt" stroke="#000000" fill="none"/>
            <g d="m 620.00021,1205.5982 h 75.24065" id="path5631" stroke-width="10" stroke-linecap="butt" stroke="#000000" fill="none"/>
            <g cy="1205.3602" id="circle5633" rx="40.000015" stroke-width="10" stroke="#000000" ry="40" fill="none" cx="576.25018"/>
        </g>
        <g id="subpart5">
            <g id="connector12pin" stroke-width="10" stroke-linecap="round" y2="1705.3687" y1="1705.3687" stroke="#555555" x1="100.21053" fill="none" x2="5.0712147"/>
            <g x="0.27037978" id="connector12terminal" stroke-width="0" y="1700.5073" width="10" height="10" fill="none"/>
            <g x="33.16494" id="label12" font-size="35" y="1679.8484" text-anchor="start" font-family="'Droid Sans'" fill="#555555">13</g>
            <g id="connector11pin" stroke-width="10" stroke-linecap="round" y2="1505.3621" y1="1505.3621" stroke="#555555" x1="100.21053" fill="none" x2="5.0712123"/>
            <g x="0.27037978" id="connector11terminal" stroke-width="0" y="1500.5009" width="10" height="10" fill="none"/>
            <g x="33.355114" id="label11" font-size="35" y="1480.218" text-anchor="start" font-family="'Droid Sans'" fill="#555555">12</g>
            <g x="125.22794" id="text5955" font-size="49" y="1680.058" text-anchor="start" font-family="'Droid Sans'" fill="#555555">B4</g>
            <g x="130.10457" id="text5931" font-size="49" y="1480.4299" text-anchor="start" font-family="'Droid Sans'" fill="#555555">A4</g>
            <g x="765.40961" id="label10" font-size="35" y="1580.5544" text-anchor="end" font-family="'Droid Sans'" fill="#555555">11</g>
            <g x="617.9566" id="text9670" font-size="49" y="1540.5127" text-anchor="start" font-family="'Droid Sans'" fill="#555555">Q4</g>
            <g id="connector10pin" stroke-width="10" stroke-linecap="round" y2="1605.3612" y1="1605.3612" stroke="#555555" x1="805.17157" fill="none" x2="700.39789"/>
            <g x="799.80713" id="connector10terminal" stroke-width="0" y="1601.1952" width="9.9923487" height="9.1666365" fill="none"/>
            <g d="m 236.72828,1439.3617 h 118.68335 c 118.68331,0 178.02498,165.0006 178.02498,165.0006 0,0 -59.34167,164.9995 -178.02498,164.9995 H 236.72828 c 14.83543,-18.3335 26.01171,-46.8075 33.37969,-73.3351 8.11675,-29.2237 11.1265,-60.7685 11.12657,-91.6644 6e-5,-30.8981 -3.0094,-62.4451 -11.12657,-91.6697 -7.36787,-26.5256 -18.54426,-54.9974 -33.37969,-73.3309 z" id="path5553" stroke-width="10" stroke-linecap="butt" stroke="#000000" fill="none"/>
            <g id="path5555" d="m 211.79616,1769.3619 h -2.96152 c 15.81831,-18.3335 27.73504,-46.8086 35.59121,-73.3351 8.65441,-29.2237 11.86364,-60.7685 11.86371,-91.6644 7e-5,-30.8981 -3.2087,-62.4451 -11.86371,-91.6697 -7.85604,-26.5256 -19.7729,-54.9974 -35.59121,-73.3309 h 3.84471 c 15.81831,18.3335 27.73937,46.8044 35.59561,73.3309 8.65494,29.2246 11.85943,60.7716 11.85934,91.6697 -9e-5,30.8959 -3.07225,62.4948 -11.85934,91.6644 -8.02492,26.6385 -20.66047,55.0016 -36.4788,73.3351 z" stroke-width="10" stroke-linecap="butt" stroke="#000000" fill="none"/>
            <g d="M 95.238629,1505.5986 H 240.20125" id="path5557" stroke-width="10" stroke-linecap="butt" stroke="#000000" fill="none"/>
            <g d="m 95.238629,1705.6 144.962621,-0.01" id="path5559" stroke-width="10" stroke-linecap="butt" stroke="#000000" fill="none"/>
            <g d="m 620.00019,1604.5805 h 75.19627" id="path5561" stroke-width="10" stroke-linecap="butt" stroke="#000000" fill="none"/>
            <g cy="1604.8827" id="circle5563" rx="39.479183" stroke-width="10" stroke-linecap="butt" stroke="#000000" ry="39.479179" fill="none" cx="575.72937"/>
        </g>
    </g>
</svg>
