<svg width="1.401in" xmlns="http://www.w3.org/2000/svg" height="1.8001in" viewBox="0 0 1401 1800.1">
    <g>
        <g transform="translate(0 77.7778)">
            <g id="schematic">
                <g id="subpart4">
                    <g d="m200 200h793.75v500h-793.75z" stroke-width="12.5" stroke-linecap="round" stroke-linejoin="round" stroke="#000" fill="none"/>
                    <g x="600" id="label" font-size="48.6111" y="400" text-anchor="middle" font-family="'Droid Sans'">LM1 CN6</g>
                    <g d="m4.8611 400h195.1389" stroke-width="9.7222" stroke-linecap="round" stroke-linejoin="round" stroke="#787878" fill="none"/>
                    <g id="connector52pin" d="m0 395.139h200v9.7222h-200z" fill="none"/>
                    <g id="connector52terminal" d="m0 395.139h.1v9.7222h-.1z" fill="none"/>
                    <g x="219.444" id="label0" font-size="48.6111" y="409.722" font-family="'Droid Sans'" fill="#8c8c8c">MICA</g>
                    <g x="100" font-size="34.7222" stroke-width="0" y="385.417" text-anchor="middle" font-family="Droid Sans" fill="#8c8c8c">1</g>
                    <g d="m4.8611 500h195.1389" stroke-width="9.7222" stroke-linecap="round" stroke-linejoin="round" stroke="#787878" fill="none"/>
                    <g id="connector58pin" d="m0 495.139h200v9.7222h-200z" fill="none"/>
                    <g id="connector58terminal" d="m0 495.139h.1v9.7222h-.1z" fill="none"/>
                    <g x="219.444" id="label3" font-size="48.6111" y="509.722" font-family="'Droid Sans'" fill="#8c8c8c">DLCK</g>
                    <g x="100" font-size="34.7222" stroke-width="0" y="485.417" text-anchor="middle" font-family="Droid Sans" fill="#8c8c8c">4</g>
                    <g d="m995.139 400h200.001" stroke-width="9.7222" stroke-linecap="round" stroke-linejoin="round" stroke="#787878" fill="none"/>
                    <g id="connector51pin" d="m1000 395.139h200v9.7222h-200z" fill="none"/>
                    <g id="connector51terminal" d="m1200 395.139h.1v9.7222h-.1z" fill="none"/>
                    <g x="980.556" id="label7" font-size="48.6111" y="409.722" text-anchor="end" font-family="'Droid Sans'" fill="#8c8c8c">MICB</g>
                    <g x="1100" font-size="34.7222" stroke-width="0" y="385.417" text-anchor="middle" font-family="Droid Sans" fill="#8c8c8c">8</g>
                    <g d="m995.139 500h200.001" stroke-width="9.7222" stroke-linecap="round" stroke-linejoin="round" stroke="#787878" fill="none"/>
                    <g id="connector53pin" d="m1000 495.139h200v9.7222h-200z" fill="none"/>
                    <g id="connector53terminal" d="m1200 495.139h.1v9.7222h-.1z" fill="none"/>
                    <g x="980.556" id="label6" font-size="48.6111" y="509.722" text-anchor="end" font-family="'Droid Sans'" fill="#8c8c8c">MIC BIASA</g>
                    <g x="1100" font-size="34.7222" stroke-width="0" y="485.417" text-anchor="middle" font-family="Droid Sans" fill="#8c8c8c">7</g>
                    <g d="m600 4.8611v195.1389" stroke-width="9.7222" stroke-linecap="round" stroke-linejoin="round" stroke="#787878"/>
                    <g id="connector57pin" d="m595.139 0h9.7222v200h-9.7222z" fill="none"/>
                    <g id="connector57terminal" d="m595.139 0h9.7222v.1h-9.7222z" fill="none"/>
                    <g transform="translate(619.444 222.222)">
                        <g transform="matrix(0 -1 1 0 0 0)">
                            <g id="label4" font-size="48.6111" text-anchor="end" font-family="'Droid Sans'" fill="#8c8c8c">1.8V</g>
                        </g>
                    </g>
                    <g transform="translate(585.417 100)">
                        <g transform="matrix(0 -1 1 0 0 0)">
                            <g font-size="34.7222" stroke-width="0" text-anchor="middle" font-family="Droid Sans" fill="#8c8c8c">5</g>
                        </g>
                    </g>
                    <g d="m600 700v195.139" stroke-width="9.7222" stroke-linecap="round" stroke-linejoin="round" stroke="#787878" fill="none"/>
                    <g id="connector55pin" d="m595.139 700h9.7222v200h-9.7222z" fill="none"/>
                    <g id="connector55terminal" d="m595.139 900h9.7222v.1h-9.7222z" fill="none"/>
                    <g transform="translate(619.444 677.778)">
                        <g transform="matrix(0 -1 1 0 0 0)">
                            <g id="label5" font-size="48.6111" font-family="'Droid Sans'" fill="#8c8c8c">GND</g>
                        </g>
                    </g>
                    <g transform="translate(585.417 800)">
                        <g transform="matrix(0 -1 1 0 0 0)">
                            <g font-size="34.7222" stroke-width="0" text-anchor="middle" font-family="Droid Sans" fill="#8c8c8c">6</g>
                        </g>
                    </g>
                    <g fill="none">
                        <g id="connector56pin" d="m595.139 700h9.7222v200h-9.7222z"/>
                        <g id="connector56terminal" d="m595.139 900h9.7222v.1h-9.7222z"/>
                        <g id="connector54pin" d="m1000 495.139h200v9.7222h-200z"/>
                        <g id="connector54terminal" d="m1200 495.139h.1v9.7222h-.1z"/>
                    </g>
                </g>
            </g>
        </g>
        <g id="subpart3">
            <g transform="translate(1400 77.7778)">
                <g d="m200 200h993.75v1000h-993.75z" stroke-width="12.5" stroke-linecap="round" stroke-linejoin="round" stroke="#000" fill="none"/>
                <g x="700" id="label" font-size="48.6111" y="651.389" text-anchor="middle" font-family="'Droid Sans'">LM1 CN9</g>
                <g fill="none">
                    <g d="m4.8611 400h195.1389" stroke-width="9.7222" stroke-linecap="round" stroke-linejoin="round" stroke="#787878"/>
                    <g id="connector32pin" d="m0 395.139h200v9.7222h-200z"/>
                    <g id="connector32terminal" d="m0 395.139h.1v9.7222h-.1z"/>
                </g>
                <g x="219.444" id="label1" font-size="48.6111" y="409.722" font-family="'Droid Sans'" fill="#8c8c8c">SEN_AIN0</g>
                <g x="100" font-size="34.7222" stroke-width="0" y="385.417" text-anchor="middle" font-family="Droid Sans" fill="#8c8c8c">2</g>
                <g d="m4.8611 500h195.1389" stroke-width="9.7222" stroke-linecap="round" stroke-linejoin="round" stroke="#787878" fill="none"/>
                <g id="connector36pin" d="m0 495.139h200v9.7222h-200z" fill="none"/>
                <g id="connector36terminal" d="m0 495.139h.1v9.7222h-.1z" fill="none"/>
                <g x="219.444" id="label3" font-size="48.6111" y="509.722" font-family="'Droid Sans'" fill="#8c8c8c">SCK</g>
                <g x="100" font-size="34.7222" stroke-width="0" y="485.417" text-anchor="middle" font-family="Droid Sans" fill="#8c8c8c">4</g>
                <g d="m4.8611 600h195.1389" stroke-width="9.7222" stroke-linecap="round" stroke-linejoin="round" stroke="#787878" fill="none"/>
                <g id="connector38pin" d="m0 595.139h200v9.7222h-200z" fill="none"/>
                <g id="connector38terminal" d="m0 595.139h.1v9.7222h-.1z" fill="none"/>
                <g x="219.444" id="label4" font-size="48.6111" y="609.722" font-family="'Droid Sans'" fill="#8c8c8c">MISO</g>
                <g x="100" font-size="34.7222" stroke-width="0" y="585.417" text-anchor="middle" font-family="Droid Sans" fill="#8c8c8c">5</g>
                <g d="m4.8611 700h195.1389" stroke-width="9.7222" stroke-linecap="round" stroke-linejoin="round" stroke="#787878" fill="none"/>
                <g id="connector40pin" d="m0 695.139h200v9.7222h-200z" fill="none"/>
                <g id="connector40terminal" d="m0 695.139h.1v9.7222h-.1z" fill="none"/>
                <g x="219.444" id="label5" font-size="48.6111" y="709.722" font-family="'Droid Sans'" fill="#8c8c8c">MOSI</g>
                <g x="100" font-size="34.7222" stroke-width="0" y="685.417" text-anchor="middle" font-family="Droid Sans" fill="#8c8c8c">6</g>
                <g d="m4.8611 800h195.1389" stroke-width="9.7222" stroke-linecap="round" stroke-linejoin="round" stroke="#787878" fill="none"/>
                <g id="connector42pin" d="m0 795.139h200v9.7222h-200z" fill="none"/>
                <g id="connector42terminal" d="m0 795.139h.1v9.7222h-.1z" fill="none"/>
                <g x="219.444" id="label6" font-size="48.6111" y="809.722" font-family="'Droid Sans'" fill="#8c8c8c">CS0</g>
                <g x="100" font-size="34.7222" stroke-width="0" y="785.417" text-anchor="middle" font-family="Droid Sans" fill="#8c8c8c">7</g>
                <g d="m4.8611 900h195.1389" stroke-width="9.7222" stroke-linecap="round" stroke-linejoin="round" stroke="#787878" fill="none"/>
                <g id="connector44pin" d="m0 895.139h200v9.7222h-200z" fill="none"/>
                <g id="connector44terminal" d="m0 895.139h.1v9.7222h-.1z" fill="none"/>
                <g x="219.444" id="label7" font-size="48.6111" y="909.722" font-family="'Droid Sans'" fill="#8c8c8c">CS1</g>
                <g x="100" font-size="34.7222" stroke-width="0" y="885.417" text-anchor="middle" font-family="Droid Sans" fill="#8c8c8c">8</g>
                <g d="m1195.14 400h200" stroke-width="9.7222" stroke-linecap="round" stroke-linejoin="round" stroke="#787878" fill="none"/>
                <g id="connector29pin" d="m1200 395.139h200v9.7222h-200z" fill="none"/>
                <g id="connector29terminal" d="m1400 395.139h.1v9.7222h-.1z" fill="none"/>
                <g x="1180.56" id="label15" font-size="48.6111" y="409.722" text-anchor="end" font-family="'Droid Sans'" fill="#8c8c8c">MAIN POWER</g>
                <g x="1300" font-size="34.7222" stroke-width="0" y="385.417" text-anchor="middle" font-family="Droid Sans" fill="#8c8c8c">1</g>
                <g d="m1195.14 500h200" stroke-width="9.7222" stroke-linecap="round" stroke-linejoin="round" stroke="#787878" fill="none"/>
                <g id="connector31pin" d="m1200 495.139h200v9.7222h-200z" fill="none"/>
                <g id="connector31terminal" d="m1400 495.139h.1v9.7222h-.1z" fill="none"/>
                <g x="1180.56" id="label14" font-size="48.6111" y="509.722" text-anchor="end" font-family="'Droid Sans'" fill="#8c8c8c">SEN_AIN1</g>
                <g x="1300" font-size="34.7222" stroke-width="0" y="485.417" text-anchor="middle" font-family="Droid Sans" fill="#8c8c8c">3</g>
                <g d="m1195.14 600h200" stroke-width="9.7222" stroke-linecap="round" stroke-linejoin="round" stroke="#787878" fill="none"/>
                <g id="connector35pin" d="m1200 595.139h200v9.7222h-200z" fill="none"/>
                <g id="connector35terminal" d="m1400 595.139h.1v9.7222h-.1z" fill="none"/>
                <g x="1180.56" id="label12" font-size="48.6111" y="609.722" text-anchor="end" font-family="'Droid Sans'" fill="#8c8c8c">HIF_IRQ_OUR</g>
                <g x="1300" font-size="34.7222" stroke-width="0" y="585.417" text-anchor="middle" font-family="Droid Sans" fill="#8c8c8c">13</g>
                <g d="m1195.14 700h200" stroke-width="9.7222" stroke-linecap="round" stroke-linejoin="round" stroke="#787878" fill="none"/>
                <g id="connector37pin" d="m1200 695.139h200v9.7222h-200z" fill="none"/>
                <g id="connector37terminal" d="m1400 695.139h.1v9.7222h-.1z" fill="none"/>
                <g x="1180.56" id="label11" font-size="48.6111" y="709.722" text-anchor="end" font-family="'Droid Sans'" fill="#8c8c8c">PWM0</g>
                <g x="1300" font-size="34.7222" stroke-width="0" y="685.417" text-anchor="middle" font-family="Droid Sans" fill="#8c8c8c">12</g>
                <g d="m1195.14 800h200" stroke-width="9.7222" stroke-linecap="round" stroke-linejoin="round" stroke="#787878" fill="none"/>
                <g id="connector39pin" d="m1200 795.139h200v9.7222h-200z" fill="none"/>
                <g id="connector39terminal" d="m1400 795.139h.1v9.7222h-.1z" fill="none"/>
                <g x="1180.56" id="label10" font-size="48.6111" y="809.722" text-anchor="end" font-family="'Droid Sans'" fill="#8c8c8c">PWM1</g>
                <g x="1300" font-size="34.7222" stroke-width="0" y="785.417" text-anchor="middle" font-family="Droid Sans" fill="#8c8c8c">11</g>
                <g d="m1195.14 900h200" stroke-width="9.7222" stroke-linecap="round" stroke-linejoin="round" stroke="#787878" fill="none"/>
                <g id="connector41pin" d="m1200 895.139h200v9.7222h-200z" fill="none"/>
                <g id="connector41terminal" d="m1400 895.139h.1v9.7222h-.1z" fill="none"/>
                <g x="1180.56" id="label9" font-size="48.6111" y="909.722" text-anchor="end" font-family="'Droid Sans'" fill="#8c8c8c">PWM2</g>
                <g x="1300" font-size="34.7222" stroke-width="0" y="885.417" text-anchor="middle" font-family="Droid Sans" fill="#8c8c8c">10</g>
                <g d="m1195.14 1000h200" stroke-width="9.7222" stroke-linecap="round" stroke-linejoin="round" stroke="#787878" fill="none"/>
                <g id="connector43pin" d="m1200 995.139h200v9.7222h-200z" fill="none"/>
                <g id="connector43terminal" d="m1400 995.139h.1v9.7222h-.1z" fill="none"/>
                <g x="1180.56" id="label8" font-size="48.6111" y="1009.72" text-anchor="end" font-family="'Droid Sans'" fill="#8c8c8c">PWM3</g>
                <g x="1300" font-size="34.7222" stroke-width="0" y="985.417" text-anchor="middle" font-family="Droid Sans" fill="#8c8c8c">9</g>
                <g d="m700 4.8611v195.1389" stroke-width="9.7222" stroke-linecap="round" stroke-linejoin="round" stroke="#787878"/>
                <g id="connector33pin" d="m695.139 0h9.7222v200h-9.7222z" fill="none"/>
                <g id="connector33terminal" d="m695.139 0h9.7222v.1h-9.7222z" fill="none"/>
                <g transform="translate(719.444 222.222)">
                    <g transform="matrix(0 -1 1 0 0 0)">
                        <g id="label13" font-size="48.6111" text-anchor="end" font-family="'Droid Sans'" fill="#8c8c8c">3.3V</g>
                    </g>
                </g>
                <g transform="translate(685.417 100)">
                    <g transform="matrix(0 -1 1 0 0 0)">
                        <g font-size="34.7222" stroke-width="0" text-anchor="middle" font-family="Droid Sans" fill="#8c8c8c">14</g>
                    </g>
                </g>
                <g d="m700 1200v195.14" stroke-width="9.7222" stroke-linecap="round" stroke-linejoin="round" stroke="#787878" fill="none"/>
                <g id="connector34pin" d="m695.139 1200h9.7222v200h-9.7222z" fill="none"/>
                <g id="connector34terminal" d="m695.139 1400h9.7222v.1h-9.7222z" fill="none"/>
                <g transform="translate(719.444 1177.78)">
                    <g transform="matrix(0 -1 1 0 0 0)">
                        <g id="label2" font-size="48.6111" font-family="'Droid Sans'" fill="#8c8c8c">GND</g>
                    </g>
                </g>
                <g transform="translate(685.417 1300)">
                    <g transform="matrix(0 -1 1 0 0 0)">
                        <g font-size="34.7222" stroke-width="0" text-anchor="middle" font-family="Droid Sans" fill="#8c8c8c">3</g>
                    </g>
                </g>
                <g id="connector30pin" d="m695.139 1200h9.7222v200h-9.7222z" fill="none"/>
                <g id="connector30terminal" d="m695.139 1400h9.7222v.1h-9.7222z" fill="none"/>
            </g>
        </g>
    </g>
    <g id="subpart1">
        <g transform="translate(7.10543e-15,-1100)">
            <g>
                <g transform="translate(0 1100)">
                    <path d="m200 200h993.75v1400h-993.75z" stroke-width="12.5" stroke-linecap="round" stroke-linejoin="round" stroke="#000" fill="none"/>
                    <text x="700" id="label" font-size="48.6111" y="851.389" text-anchor="middle" font-family="'Droid Sans'">CXD5602PWBMAIN1</text>
                    <path d="m4.8611 500h195.1389" stroke-width="9.7222" stroke-linecap="round" stroke-linejoin="round" stroke="#787878" fill="none"/>
                    <path id="connector1pin" d="m0 495.139h200v9.7222h-200z" fill="none"/>
                    <path id="connector1terminal" d="m0 495.139h.1v9.7222h-.1z" fill="none"/>
                    <text x="219.444" id="label1" font-size="48.6111" y="509.722" font-family="'Droid Sans'" fill="#8c8c8c">TX</text>
                    <text x="100" font-size="34.7222" stroke-width="0" y="485.417" text-anchor="middle" font-family="Droid Sans" fill="#8c8c8c">2</text>
                    <path d="m4.8611 600h195.1389" stroke-width="9.7222" stroke-linecap="round" stroke-linejoin="round" stroke="#787878" fill="none"/>
                    <path id="connector2pin" d="m0 595.139h200v9.7222h-200z" fill="none"/>
                    <path id="connector2terminal" d="m0 595.139h.1v9.7222h-.1z" fill="none"/>
                    <text x="219.444" id="label2" font-size="48.6111" y="609.722" font-family="'Droid Sans'" fill="#8c8c8c">RX</text>
                    <text x="100" font-size="34.7222" stroke-width="0" y="585.417" text-anchor="middle" font-family="Droid Sans" fill="#8c8c8c">3</text>
                    <path d="m4.8611 700h195.1389" stroke-width="9.7222" stroke-linecap="round" stroke-linejoin="round" stroke="#787878" fill="none"/>
                    <path id="connector3pin" d="m0 695.139h200v9.7222h-200z" fill="none"/>
                    <path id="connector3terminal" d="m0 695.139h.1v9.7222h-.1z" fill="none"/>
                    <text x="219.444" id="label3" font-size="48.6111" y="709.722" font-family="'Droid Sans'" fill="#8c8c8c">RTS</text>
                    <text x="100" font-size="34.7222" stroke-width="0" y="685.417" text-anchor="middle" font-family="Droid Sans" fill="#8c8c8c">4</text>
                    <path d="m4.8611 800h195.1389" stroke-width="9.7222" stroke-linecap="round" stroke-linejoin="round" stroke="#787878" fill="none"/>
                    <path id="connector4pin" d="m0 795.139h200v9.7222h-200z" fill="none"/>
                    <path id="connector4terminal" d="m0 795.139h.1v9.7222h-.1z" fill="none"/>
                    <text x="219.444" id="label4" font-size="48.6111" y="809.722" font-family="'Droid Sans'" fill="#8c8c8c">CTS</text>
                    <text x="100" font-size="34.7222" stroke-width="0" y="785.417" text-anchor="middle" font-family="Droid Sans" fill="#8c8c8c">5</text>
                    <path d="m4.8611 900h195.1389" stroke-width="9.7222" stroke-linecap="round" stroke-linejoin="round" stroke="#787878" fill="none"/>
                    <path id="connector5pin" d="m0 895.139h200v9.7222h-200z" fill="none"/>
                    <path id="connector5terminal" d="m0 895.139h.1v9.7222h-.1z" fill="none"/>
                    <text x="219.444" id="label5" font-size="48.6111" y="909.722" font-family="'Droid Sans'" fill="#8c8c8c">I2S BCK</text>
                    <text x="100" font-size="34.7222" stroke-width="0" y="885.417" text-anchor="middle" font-family="Droid Sans" fill="#8c8c8c">6</text>
                    <path d="m4.8611 1000h195.1389" stroke-width="9.7222" stroke-linecap="round" stroke-linejoin="round" stroke="#787878" fill="none"/>
                    <path id="connector6pin" d="m0 995.139h200v9.7222h-200z" fill="none"/>
                    <path id="connector6terminal" d="m0 995.139h.1v9.7222h-.1z" fill="none"/>
                    <text x="219.444" id="label6" font-size="48.6111" y="1009.72" font-family="'Droid Sans'" fill="#8c8c8c">I2S LRCK</text>
                    <text x="100" font-size="34.7222" stroke-width="0" y="985.417" text-anchor="middle" font-family="Droid Sans" fill="#8c8c8c">7</text>
                    <path d="m4.8611 1100h195.1389" stroke-width="9.7222" stroke-linecap="round" stroke-linejoin="round" stroke="#787878" fill="none"/>
                    <path id="connector7pin" d="m0 1095.14h200v9.7222h-200z" fill="none"/>
                    <path id="connector7terminal" d="m0 1095.14h.1v9.7222h-.1z" fill="none"/>
                    <text x="219.444" id="label7" font-size="48.6111" y="1109.72" font-family="'Droid Sans'" fill="#8c8c8c">SP CS</text>
                    <text x="100" font-size="34.7222" stroke-width="0" y="1085.42" text-anchor="middle" font-family="Droid Sans" fill="#8c8c8c">8</text>
                    <path d="m4.8611 1200h195.1389" stroke-width="9.7222" stroke-linecap="round" stroke-linejoin="round" stroke="#787878" fill="none"/>
                    <path id="connector8pin" d="m0 1195.14h200v9.7222h-200z" fill="none"/>
                    <path id="connector8terminal" d="m0 1195.14h.1v9.7222h-.1z" fill="none"/>
                    <text x="219.444" id="label8" font-size="48.6111" y="1209.72" font-family="'Droid Sans'" fill="#8c8c8c">SPI SCK</text>
                    <text x="100" font-size="34.7222" stroke-width="0" y="1185.42" text-anchor="middle" font-family="Droid Sans" fill="#8c8c8c">9</text>
                    <path d="m4.8611 1300h195.1389" stroke-width="9.7222" stroke-linecap="round" stroke-linejoin="round" stroke="#787878" fill="none"/>
                    <path id="connector11pin" d="m0 1295.14h200v9.7222h-200z" fill="none"/>
                    <path id="connector11terminal" d="m0 1295.14h.1v9.7222h-.1z" fill="none"/>
                    <text x="219.444" id="label11" font-size="48.6111" y="1309.72" font-family="'Droid Sans'" fill="#8c8c8c">D22</text>
                    <text x="100" font-size="34.7222" stroke-width="0" y="1285.42" text-anchor="middle" font-family="Droid Sans" fill="#8c8c8c">12</text>
                    <path d="m4.8611 1400h195.1389" stroke-width="9.7222" stroke-linecap="round" stroke-linejoin="round" stroke="#787878" fill="none"/>
                    <path id="connector12pin" d="m0 1395.14h200v9.7222h-200z" fill="none"/>
                    <path id="connector12terminal" d="m0 1395.14h.1v9.7222h-.1z" fill="none"/>
                    <text x="219.444" id="label12" font-size="48.6111" y="1409.72" font-family="'Droid Sans'" fill="#8c8c8c">A2</text>
                    <text x="100" font-size="34.7222" stroke-width="0" y="1385.42" text-anchor="middle" font-family="Droid Sans" fill="#8c8c8c">13</text>
                    <path d="m1195.14 500h200" stroke-width="9.7222" stroke-linecap="round" stroke-linejoin="round" stroke="#787878" fill="none"/>
                    <path id="connector25pin" d="m1200 495.139h200v9.7222h-200z" fill="none"/>
                    <path id="connector25terminal" d="m1400 495.139h.1v9.7222h-.1z" fill="none"/>
                    <text x="1180.56" id="label25" font-size="48.6111" y="509.722" text-anchor="end" font-family="'Droid Sans'" fill="#8c8c8c">XRST_PIN_1.8V</text>
                    <text x="1300" font-size="34.7222" stroke-width="0" y="485.417" text-anchor="middle" font-family="Droid Sans" fill="#8c8c8c">26</text>
                    <path d="m1195.14 600h200" stroke-width="9.7222" stroke-linecap="round" stroke-linejoin="round" stroke="#787878" fill="none"/>
                    <path id="connector22pin" d="m1200 595.139h200v9.7222h-200z" fill="none"/>
                    <path id="connector22terminal" d="m1400 595.139h.1v9.7222h-.1z" fill="none"/>
                    <text x="1180.56" id="label22" font-size="48.6111" y="609.722" text-anchor="end" font-family="'Droid Sans'" fill="#8c8c8c">D21</text>
                    <text x="1300" font-size="34.7222" stroke-width="0" y="585.417" text-anchor="middle" font-family="Droid Sans" fill="#8c8c8c">23</text>
                    <path d="m1195.14 700h200" stroke-width="9.7222" stroke-linecap="round" stroke-linejoin="round" stroke="#787878" fill="none"/>
                    <path id="connector21pin" d="m1200 695.139h200v9.7222h-200z" fill="none"/>
                    <path id="connector21terminal" d="m1400 695.139h.1v9.7222h-.1z" fill="none"/>
                    <text x="1180.56" id="label21" font-size="48.6111" y="709.722" text-anchor="end" font-family="'Droid Sans'" fill="#8c8c8c">D20</text>
                    <text x="1300" font-size="34.7222" stroke-width="0" y="685.417" text-anchor="middle" font-family="Droid Sans" fill="#8c8c8c">22</text>
                    <path d="m1195.14 800h200" stroke-width="9.7222" stroke-linecap="round" stroke-linejoin="round" stroke="#787878" fill="none"/>
                    <path id="connector20pin" d="m1200 795.139h200v9.7222h-200z" fill="none"/>
                    <path id="connector20terminal" d="m1400 795.139h1v9.7222h-1z" fill="none"/>
                    <text x="1180.56" id="label20" font-size="48.6111" y="809.722" text-anchor="end" font-family="'Droid Sans'" fill="#8c8c8c">I2S DIN</text>
                    <text x="1300" font-size="34.7222" stroke-width="0" y="785.417" text-anchor="middle" font-family="Droid Sans" fill="#8c8c8c">21</text>
                    <path d="m1195.14 900h200" stroke-width="9.7222" stroke-linecap="round" stroke-linejoin="round" stroke="#787878" fill="none"/>
                    <path id="connector19pin" d="m1200 895.139h200v9.7222h-200z" fill="none"/>
                    <path id="connector19terminal" d="m1400 895.139h.1v9.7222h-.1z" fill="none"/>
                    <text x="1180.56" id="label19" font-size="48.6111" y="909.722" text-anchor="end" font-family="'Droid Sans'" fill="#8c8c8c">I2S DOUT</text>
                    <text x="1300" font-size="34.7222" stroke-width="0" y="885.417" text-anchor="middle" font-family="Droid Sans" fill="#8c8c8c">20</text>
                    <path d="m1195.14 1000h200" stroke-width="9.7222" stroke-linecap="round" stroke-linejoin="round" stroke="#787878" fill="none"/>
                    <path id="connector18pin" d="m1200 995.139h200v9.7222h-200z" fill="none"/>
                    <path id="connector18terminal" d="m1400 995.139h.1v9.7222h-.1z" fill="none"/>
                    <text x="1180.56" id="label18" font-size="48.6111" y="1009.72" text-anchor="end" font-family="'Droid Sans'" fill="#8c8c8c">SPI MISO</text>
                    <text x="1300" font-size="34.7222" stroke-width="0" y="985.417" text-anchor="middle" font-family="Droid Sans" fill="#8c8c8c">19</text>
                    <path d="m1195.14 1100h200" stroke-width="9.7222" stroke-linecap="round" stroke-linejoin="round" stroke="#787878" fill="none"/>
                    <path id="connector17pin" d="m1200 1095.14h200v9.7222h-200z" fill="none"/>
                    <path id="connector17terminal" d="m1400 1095.14h.1v9.7222h-.1z" fill="none"/>
                    <text x="1180.56" id="label17" font-size="48.6111" y="1109.72" text-anchor="end" font-family="'Droid Sans'" fill="#8c8c8c">SPI MOSI</text>
                    <text x="1300" font-size="34.7222" stroke-width="0" y="1085.42" text-anchor="middle" font-family="Droid Sans" fill="#8c8c8c">18</text>
                    <path d="m1195.14 1200h200" stroke-width="9.7222" stroke-linecap="round" stroke-linejoin="round" stroke="#787878" fill="none"/>
                    <path id="connector15pin" d="m1200 1195.14h200v9.7222h-200z" fill="none"/>
                    <path id="connector15terminal" d="m1400 1195.14h.1v9.7222h-.1z" fill="none"/>
                    <text x="1180.56" id="label15" font-size="48.6111" y="1209.72" text-anchor="end" font-family="'Droid Sans'" fill="#8c8c8c">I2C SCL</text>
                    <text x="1300" font-size="34.7222" stroke-width="0" y="1185.42" text-anchor="middle" font-family="Droid Sans" fill="#8c8c8c">16</text>
                    <path d="m1195.14 1300h200" stroke-width="9.7222" stroke-linecap="round" stroke-linejoin="round" stroke="#787878" fill="none"/>
                    <path id="connector14pin" d="m1200 1295.14h200v9.7222h-200z" fill="none"/>
                    <path id="connector14terminal" d="m1400 1295.14h.1v9.7222h-.1z" fill="none"/>
                    <text x="1180.56" id="label14" font-size="48.6111" y="1309.72" text-anchor="end" font-family="'Droid Sans'" fill="#8c8c8c">I2C SDA</text>
                    <text x="1300" font-size="34.7222" stroke-width="0" y="1285.42" text-anchor="middle" font-family="Droid Sans" fill="#8c8c8c">15</text>
                    <path d="m1195.14 1400h200" stroke-width="9.7222" stroke-linecap="round" stroke-linejoin="round" stroke="#787878" fill="none"/>
                    <path id="connector13pin" d="m1200 1395.14h200v9.7222h-200z" fill="none"/>
                    <path id="connector13terminal" d="m1400 1395.14h.1v9.7222h-.1z" fill="none"/>
                    <text x="1180.56" id="label13" font-size="48.6111" y="1409.72" text-anchor="end" font-family="'Droid Sans'" fill="#8c8c8c">A3</text>
                    <text x="1300" font-size="34.7222" stroke-width="0" y="1385.42" text-anchor="middle" font-family="Droid Sans" fill="#8c8c8c">14</text>
                    <path d="m500 4.8611v195.1389" stroke-width="9.7222" stroke-linecap="round" stroke-linejoin="round" stroke="#787878"/>
                    <path id="connector9pin" d="m495.139 0h9.7222v200h-9.7222z" fill="none"/>
                    <path id="connector9terminal" d="m495.139 0h9.7222v.1h-9.7222z" fill="none"/>
                    <g transform="translate(519.444 222.222)">
                        <g transform="matrix(0 -1 1 0 0 0)">
                            <text id="label9" font-size="48.6111" text-anchor="end" font-family="'Droid Sans'" fill="#8c8c8c">3.3V</text>
                        </g>
                    </g>
                    <g transform="translate(485.417 100)">
                        <g transform="matrix(0 -1 1 0 0 0)">
                            <text font-size="34.7222" stroke-width="0" text-anchor="middle" font-family="Droid Sans" fill="#8c8c8c">10</text>
                        </g>
                    </g>
                    <path d="m600 4.8611v195.1389" stroke-width="9.7222" stroke-linecap="round" stroke-linejoin="round" stroke="#787878"/>
                    <path id="connector23pin" d="m595.139 0h9.7222v200h-9.7222z" fill="none"/>
                    <path id="connector23terminal" d="m595.139 0h9.7222v.1h-9.7222z" fill="none"/>
                    <g transform="translate(619.444 222.222)">
                        <g transform="matrix(0 -1 1 0 0 0)">
                            <text id="label23" font-size="48.6111" text-anchor="end" font-family="'Droid Sans'" fill="#8c8c8c">EXT_VDD</text>
                        </g>
                    </g>
                    <g transform="translate(585.417 100)">
                        <g transform="matrix(0 -1 1 0 0 0)">
                            <text font-size="34.7222" stroke-width="0" text-anchor="middle" font-family="Droid Sans" fill="#8c8c8c">24</text>
                        </g>
                    </g>
                    <path d="m700 4.8611v195.1389" stroke-width="9.7222" stroke-linecap="round" stroke-linejoin="round" stroke="#787878"/>
                    <path id="connector24pin" d="m695.139 0h9.7222v200h-9.7222z" fill="none"/>
                    <path id="connector24terminal" d="m695.139 0h9.7222v.1h-9.7222z" fill="none"/>
                    <g transform="translate(719.444 222.222)">
                        <g transform="matrix(0 -1 1 0 0 0)">
                            <text id="label24" font-size="48.6111" text-anchor="end" font-family="'Droid Sans'" fill="#8c8c8c">1.8V</text>
                        </g>
                    </g>
                    <g transform="translate(685.417 100)">
                        <g transform="matrix(0 -1 1 0 0 0)">
                            <text font-size="34.7222" stroke-width="0" text-anchor="middle" font-family="Droid Sans" fill="#8c8c8c">25</text>
                        </g>
                    </g>
                    <path d="m700 1600v195.14" stroke-width="9.7222" stroke-linecap="round" stroke-linejoin="round" stroke="#787878" fill="none"/>
                    <path id="connector16pin" d="m695.139 1600h9.7222v200h-9.7222z" fill="none"/>
                    <path id="connector16terminal" d="m695.139 1800h9.7222v.1h-9.7222z" fill="none"/>
                    <g transform="translate(719.444 1577.78)">
                        <g transform="matrix(0 -1 1 0 0 0)">
                            <text id="label16" font-size="48.6111" font-family="'Droid Sans'" fill="#8c8c8c">GND</text>
                        </g>
                    </g>
                    <g transform="translate(685.417 1700)">
                        <g transform="matrix(0 -1 1 0 0 0)">
                            <text font-size="34.7222" stroke-width="0" text-anchor="middle" font-family="Droid Sans" fill="#8c8c8c">17</text>
                        </g>
                    </g>
                    <g fill="none">
                        <path id="connector10pin" d="m695.139 0h9.7222v200h-9.7222z"/>
                        <path id="connector10terminal" d="m695.139 0h9.7222v.1h-9.7222z"/>
                        <path id="connector0pin" d="m695.139 1600h9.7222v200h-9.7222z"/>
                        <path id="connector0terminal" d="m695.139 1800h9.7222v.1h-9.7222z"/>
                    </g>
                </g>
            </g>
        </g>
    </g>
    <g id="subpart2">
        <g transform="translate(1800 1700)">
            <g d="m6.25 6.25h393.75v393.75h-393.75z" stroke-width="12.5" stroke-linecap="round" stroke-linejoin="round" stroke="#000" fill="none"/>
            <g x="186.25" id="label" font-size="48.6111" y="281.389" text-anchor="middle" font-family="'Droid Sans'">LM1 CN2</g>
            <g fill="none">
                <g d="m395.139 100h200" stroke-width="9.7222" stroke-linecap="round" stroke-linejoin="round" stroke="#787878"/>
                <g id="connector26pin" d="m400 95.1389h200v9.7222h-200z"/>
                <g id="connector26terminal" d="m600 95.1389h.1v9.7222h-.1z"/>
            </g>
            <g x="380.556" id="label4" font-size="48.6111" y="109.722" text-anchor="end" font-family="'Droid Sans'" fill="#8c8c8c">3.3V</g>
            <g x="500" font-size="34.7222" stroke-width="0" y="85.4167" text-anchor="middle" font-family="Droid Sans" fill="#8c8c8c">1</g>
            <g d="m395.139 200h200" stroke-width="9.7222" stroke-linecap="round" stroke-linejoin="round" stroke="#787878" fill="none"/>
            <g id="connector27pin" d="m400 195.139h200v9.7222h-200z" fill="none"/>
            <g id="connector27terminal" d="m600 195.139h.1v9.7222h-.1z" fill="none"/>
            <g x="380.556" id="label3" font-size="48.6111" y="209.722" text-anchor="end" font-family="'Droid Sans'" fill="#8c8c8c">VDD_LVS</g>
            <g x="500" font-size="34.7222" stroke-width="0" y="185.417" text-anchor="middle" font-family="Droid Sans" fill="#8c8c8c">2</g>
            <g d="m395.139 300h200" stroke-width="9.7222" stroke-linecap="round" stroke-linejoin="round" stroke="#787878" fill="none"/>
            <g id="connector28pin" d="m400 295.139h200v9.7222h-200z" fill="none"/>
            <g id="connector28terminal" d="m600 295.139h.1v9.7222h-.1z" fill="none"/>
            <g x="380.556" id="label2" font-size="48.6111" y="309.722" text-anchor="end" font-family="'Droid Sans'" fill="#8c8c8c">5V</g>
            <g x="500" font-size="34.7222" stroke-width="0" y="285.417" text-anchor="middle" font-family="Droid Sans" fill="#8c8c8c">3</g>
        </g>
    </g>
</svg>
